<?xml version="1.0" encoding="utf-8"?>
<!-- Generator: Adobe Illustrator 27.5.0, SVG Export Plug-In . SVG Version: 6.00 Build 0)  -->
<svg version="1.1" xmlns="http://www.w3.org/2000/svg" xmlns:xlink="http://www.w3.org/1999/xlink" x="0px" y="0px"
	 viewBox="0 0 2500 2500" style="enable-background:new 0 0 2500 2500;" xml:space="preserve">
<g id="Background">
	<rect style="fill:#FFFFFF;" width="2500" height="2500"/>
</g>
<g id="Illustration">
	<g id="Post_office_1_">
		<g>
			<g>
				<g>
					<g>
						<polygon style="fill:#FFFFFF;" points="2118.086,552.4 2118.086,1534.734 1473.03,1584.862 1473.03,474.078 						"/>
						<path d="M2118.085,828.678c-0.047,0-0.094-0.001-0.142-0.004l-645.054-41.644c-1.157-0.075-2.056-1.034-2.056-2.193V605.428
							c0-0.62,0.262-1.212,0.723-1.629c0.459-0.416,1.062-0.622,1.691-0.558l645.054,63.874c1.125,0.112,1.981,1.057,1.981,2.187
							V826.48c0,0.607-0.251,1.188-0.695,1.603C2119.18,828.466,2118.641,828.678,2118.085,828.678z M1475.228,782.777
							l640.659,41.36V671.292l-640.659-63.438V782.777z"/>
						<path d="M1473.031,1587.059c-0.552,0-1.084-0.207-1.491-0.585c-0.451-0.415-0.706-1-0.706-1.613V474.078
							c0-0.629,0.27-1.228,0.74-1.645c0.47-0.418,1.092-0.613,1.721-0.536l645.054,78.322c1.103,0.134,1.934,1.07,1.934,2.181
							v982.334c0,1.148-0.884,2.102-2.028,2.191l-645.054,50.128C1473.145,1587.057,1473.087,1587.059,1473.031,1587.059z
							 M1475.228,476.559v1105.928l640.659-49.787V554.346L1475.228,476.559z"/>
						<g>
							<path d="M1523.659,1393.884c-0.573,0-1.122-0.223-1.532-0.623c-0.425-0.413-0.665-0.981-0.665-1.574V941.861
								c0-0.598,0.243-1.168,0.674-1.583c0.431-0.414,0.985-0.629,1.607-0.614l541.063,20.554c1.18,0.044,2.114,1.014,2.114,2.195
								v414.946c0,1.191-0.948,2.165-2.139,2.196l-541.063,14.327C1523.697,1393.884,1523.678,1393.884,1523.659,1393.884z
								 M1525.856,944.143v445.287l536.667-14.211V964.53L1525.856,944.143z"/>
							<g>
								<path d="M1653.398,1306.107c-0.436,0-0.878-0.13-1.262-0.399c-0.991-0.699-1.232-2.069-0.534-3.062l176.594-251.268
									c0.7-0.992,2.071-1.231,3.062-0.534c0.994,0.698,1.232,2.069,0.534,3.062l-176.594,251.268
									C1654.769,1305.782,1654.089,1306.107,1653.398,1306.107z"/>
								<path d="M1553.312,1325.895c-0.44,0-0.884-0.132-1.27-0.407c-0.989-0.703-1.221-2.075-0.519-3.063l225.291-316.979
									c0.702-0.99,2.073-1.223,3.064-0.518c0.989,0.703,1.221,2.075,0.519,3.063l-225.291,316.979
									C1554.677,1325.573,1553.999,1325.895,1553.312,1325.895z"/>
							</g>
						</g>
					</g>
					<g>
						<polygon style="fill:#FFFFFF;" points="422.023,507.333 422.023,1526.748 1473.241,1584.862 1473.241,474.079 
							1453.917,474.093 						"/>
						<polygon points="422.023,626.19 422.023,800.513 1473.241,786.419 1473.241,600.684 1453.917,600.686 						"/>
						<path d="M1473.241,1587.059c-0.041,0-0.082-0.001-0.12-0.003l-1051.219-58.114c-1.165-0.064-2.077-1.028-2.077-2.194V507.333
							c0-1.186,0.942-2.158,2.127-2.196l1031.894-33.24l19.393-0.015c0.584,0,1.144,0.231,1.556,0.643
							c0.412,0.412,0.644,0.972,0.644,1.555v1110.782c0,0.604-0.249,1.181-0.687,1.597
							C1474.342,1586.844,1473.801,1587.059,1473.241,1587.059z M424.22,1524.668l1046.824,57.872V476.278l-17.125,0.013
							L424.22,509.461V1524.668z"/>
						<g>
							<path d="M1094.14,1566.207c-0.036,0-0.073-0.001-0.109-0.003l-274.21-13.688c-1.17-0.058-2.088-1.024-2.088-2.194v-608.09
								c0-1.204,0.968-2.184,2.172-2.198l274.211-3.088c0.627,0.04,1.155,0.222,1.571,0.635c0.418,0.412,0.652,0.975,0.652,1.562
								v624.866c0,0.602-0.247,1.177-0.682,1.592C1095.245,1565.991,1094.702,1566.207,1094.14,1566.207z M822.127,1548.231
								l269.816,13.468V941.365l-269.816,3.039V1548.231z"/>
							<g>
								<path d="M849.396,1150.688c-0.582,0-1.144-0.232-1.556-0.643c-0.412-0.412-0.644-0.972-0.644-1.555V967.863
									c0-1.204,0.97-2.185,2.174-2.198l88.311-0.96c0.652-0.011,1.15,0.222,1.569,0.635c0.419,0.413,0.652,0.975,0.652,1.562
									v181.518c0,1.212-0.983,2.196-2.195,2.198L849.396,1150.688z M937.705,1148.421h0.021H937.705z M851.591,970.036v176.254
									l83.916-0.065V969.123L851.591,970.036z"/>
								<path d="M968.525,1150.591c-0.582,0-1.144-0.232-1.556-0.643c-0.412-0.412-0.644-0.972-0.644-1.555V967.326
									c0-1.206,0.972-2.186,2.176-2.198l88.311-0.829c0.008,0,0.015,0,0.021,0c0.579,0,1.135,0.229,1.547,0.636
									c0.416,0.413,0.65,0.975,0.65,1.561v181.827c0,1.213-0.983,2.196-2.195,2.198L968.525,1150.591z M1056.834,1148.324h0.021
									H1056.834z M970.72,969.503v176.691l83.916-0.066V968.715L970.72,969.503z"/>
								<polygon style="fill:#FFFFFF;" points="849.393,1173.179 849.393,1366.151 937.705,1369.729 937.705,1173.179 								"/>
								<polygon style="fill:#FFFFFF;" points="968.523,1173.179 968.523,1370.922 1056.835,1374.501 1056.835,1173.179 								"/>
							</g>
						</g>
						<g>
							<path d="M1421.227,1393.022c-0.028,0-0.056-0.001-0.086-0.002l-287.443-11.113c-1.178-0.045-2.112-1.015-2.112-2.195V938.697
								c0-1.205,0.97-2.185,2.174-2.197l287.443-3.034c0.609-0.008,1.15,0.222,1.569,0.635c0.418,0.413,0.652,0.975,0.652,1.562
								v455.162c0,0.598-0.242,1.17-0.674,1.584C1422.341,1392.803,1421.794,1393.022,1421.227,1393.022z M1135.982,1377.598
								l283.047,10.942V937.883l-283.047,2.988V1377.598z"/>
							<g>
								<path style="fill:#FFFFFF;" d="M1153.993,1291.38c-0.436,0-0.878-0.13-1.262-0.399c-0.994-0.699-1.232-2.069-0.534-3.062
									l155.65-221.466c0.7-0.993,2.069-1.232,3.062-0.534c0.991,0.698,1.232,2.069,0.534,3.062l-155.65,221.466
									C1155.364,1291.055,1154.684,1291.38,1153.993,1291.38z"/>
							</g>
						</g>
						<g>
							<g>
								<path d="M558.116,1343.681c-0.436,0-0.873-0.129-1.258-0.397c-0.996-0.696-1.236-2.067-0.541-3.06l186.711-266.748
									c0.695-0.996,2.067-1.236,3.06-0.541c0.996,0.696,1.236,2.067,0.541,3.06l-186.711,266.748
									C559.492,1343.354,558.809,1343.681,558.116,1343.681z"/>
								<path d="M515.445,1060.867c-0.436,0-0.873-0.129-1.257-0.397c-0.996-0.696-1.236-2.067-0.541-3.06l69.161-98.808
									c0.695-0.996,2.067-1.235,3.06-0.541c0.996,0.696,1.236,2.067,0.541,3.06l-69.16,98.808
									C516.821,1060.541,516.139,1060.867,515.445,1060.867z"/>
							</g>
							<path d="M493.2,1290.944c-1.215,0-2.197-0.984-2.197-2.198V945.915c0-1.204,0.968-2.183,2.172-2.198l287.443-3.24
								c0.644,0.029,1.152,0.222,1.571,0.635c0.418,0.412,0.652,0.975,0.652,1.562v305.254c0,1.214-0.983,2.197-2.197,2.197
								c-1.215,0-2.198-0.984-2.198-2.197V944.896l-283.048,3.191v340.66C495.398,1289.96,494.415,1290.944,493.2,1290.944z"/>
						</g>
					</g>
				</g>
			</g>
			<g>
				
					<rect x="629.88" y="437.307" transform="matrix(0.9307 -0.3658 0.3658 0.9307 -163.7973 386.9879)" style="fill:#FFFFFF;" width="618.669" height="376.77"/>
				<g>
					<polygon points="628.056,545.591 582.404,563.537 599.937,608.137 					"/>
					<polygon points="637.737,704.297 726.485,506.899 677.605,526.114 618.965,656.544 					"/>
					<polygon points="677.664,799.622 827.039,467.371 778.159,486.586 658.891,751.868 					"/>
					<polygon points="713.339,896.618 923.343,429.513 874.463,448.728 694.567,848.864 					"/>
					<polygon points="972.891,410.036 751.81,901.779 800.69,882.564 1021.771,390.821 					"/>
					<polygon points="1071.32,371.343 850.239,863.087 899.119,843.872 1120.2,352.129 					"/>
					<polygon points="1162.625,348.496 948.667,824.394 997.548,805.179 1181.397,396.25 					"/>
					<polygon points="1199.928,445.764 1047.096,785.702 1095.976,766.487 1219.045,492.751 					"/>
					<polygon points="1237.661,542.074 1145.525,747.009 1194.405,727.794 1256.263,590.206 					"/>
					<polygon points="1275.359,638.464 1243.954,708.316 1294.642,688.391 					"/>
				</g>
				<g>
					
						<rect x="671.847" y="467.354" transform="matrix(0.9307 -0.3658 0.3658 0.9307 -163.7973 386.9879)" style="fill:#FFFFFF;" width="534.734" height="316.677"/>
					<path d="M748.312,873.068c-0.876,0-1.704-0.529-2.045-1.395L630.41,576.951c-0.212-0.542-0.202-1.147,0.03-1.681
						c0.234-0.534,0.67-0.954,1.21-1.167l497.662-195.632c1.125-0.445,2.404,0.11,2.85,1.241l115.857,294.723
						c0.212,0.542,0.202,1.147-0.03,1.681c-0.234,0.534-0.67,0.954-1.21,1.167L749.116,872.915
						C748.852,873.019,748.58,873.068,748.312,873.068z M635.305,577.389l114.247,290.633l493.572-194.025l-114.247-290.633
						L635.305,577.389z"/>
				</g>
				<path d="M950.765,656.562c-0.142,0-0.283-0.014-0.425-0.042l-238.193-46.916c-1.191-0.234-1.966-1.39-1.732-2.581
					c0.234-1.191,1.397-1.967,2.582-1.731l236.785,46.639l139.239-200.119c0.691-0.997,2.062-1.242,3.06-0.548
					c0.996,0.693,1.243,2.062,0.549,3.059L952.57,655.62C952.154,656.217,951.475,656.562,950.765,656.562z"/>
				<path d="M1171.918,661.548c-0.142,0-0.283-0.013-0.427-0.042l-161.045-31.721c-1.191-0.234-1.966-1.389-1.732-2.581
					c0.234-1.192,1.397-1.974,2.582-1.731l161.045,31.721c1.191,0.234,1.966,1.389,1.732,2.58
					C1173.867,660.823,1172.946,661.548,1171.918,661.548z"/>
				<path d="M790.422,807.689c-0.434,0-0.871-0.128-1.253-0.394c-0.996-0.693-1.243-2.062-0.549-3.059l87.35-125.542
					c0.691-0.998,2.062-1.242,3.06-0.548c0.996,0.693,1.242,2.062,0.549,3.059l-87.35,125.542
					C791.802,807.361,791.117,807.689,790.422,807.689z"/>
				<path d="M605.231,623.802c-0.876,0-1.704-0.529-2.045-1.395l-22.827-58.066c-0.212-0.542-0.202-1.147,0.03-1.681
					c0.234-0.534,0.669-0.954,1.21-1.167l575.78-226.34c0.545-0.214,1.15-0.201,1.682,0.03c0.534,0.233,0.955,0.668,1.167,1.211
					l106.299,270.411c0.444,1.129-0.111,2.404-1.24,2.849c-1.127,0.445-2.406-0.11-2.85-1.241l-105.494-268.366l-571.69,224.733
					l22.022,56.021c0.444,1.129-0.112,2.405-1.24,2.849C605.772,623.752,605.499,623.802,605.231,623.802z"/>
				<path style="fill:#FFFFFF;" d="M674.23,799.33c-0.875,0-1.704-0.529-2.045-1.395l-69-175.528
					c-0.444-1.129,0.112-2.405,1.24-2.849c1.129-0.444,2.404,0.111,2.85,1.241l69,175.528c0.444,1.129-0.112,2.405-1.24,2.849
					C674.771,799.28,674.499,799.33,674.23,799.33z"/>
				<path d="M720.247,916.386c-0.876,0-1.704-0.529-2.045-1.395l-46.016-117.056c-0.444-1.129,0.112-2.405,1.24-2.849
					c1.127-0.444,2.406,0.11,2.85,1.241l45.211,115.011l313.128-123.092c1.125-0.444,2.403,0.111,2.85,1.241
					c0.444,1.129-0.111,2.405-1.24,2.849L721.051,916.233C720.787,916.337,720.515,916.386,720.247,916.386z"/>
				<path style="fill:#FFFFFF;" d="M1035.419,792.49c-0.875,0-1.704-0.529-2.045-1.395c-0.444-1.129,0.112-2.404,1.24-2.849
					l258.56-101.641l-30.737-78.194c-0.444-1.129,0.112-2.405,1.24-2.849c1.125-0.443,2.403,0.111,2.85,1.242l31.542,80.239
					c0.444,1.129-0.112,2.405-1.24,2.849l-260.605,102.445C1035.96,792.441,1035.688,792.49,1035.419,792.49z"/>
			</g>
		</g>
		<g>
			<path style="fill:#FFFFFF;" d="M1896.339,1310.574l-21.426-226.755c-0.336-3.54-3.273-6.244-6.829-6.244l-84.423-1.534
				c-146.388-2.66-292.824-0.079-439.028,7.739c-22.973,0.327-43.691,13.891-53.179,34.816l-82.078,181.168l-20.401,24.406
				c-7.824,9.36-13.43,20.37-16.396,32.204l-11.94,47.636c-3.213,12.818-4.838,25.983-4.838,39.198v162.514l544.479-8.849v17.839
				h64.142c-1.125-5.897-2.049-12.217-2.766-18.836l68.866-1.119c-0.731,7.029-1.689,13.735-2.876,19.955h34.013
				c11.404,0,21.7-6.581,26.134-17.088l0.104-0.458c7.813-18.511,11.696-38.275,11.696-58.368v-156.428
				C1899.593,1358.399,1898.602,1334.44,1896.339,1310.574z"/>
			<g>
				<ellipse cx="1262.497" cy="1618.679" rx="54.049" ry="106.25"/>
				<g>
					<path style="fill:#FFFFFF;" d="M1262.497,1512.236c-0.068,0-0.135,0-0.203,0c-10.285,0-45.802,0-56.068,0
						c-0.083,0-0.167,0-0.25,0c-29.851,0-54.05,47.666-54.05,106.346c0,58.406,23.974,105.854,53.632,106.295
						c0.139,0.002,56.602,1.335,56.602,1.335s0.225,0,0.337,0c29.851,0,54.049-48.308,54.049-106.988
						C1316.546,1560.544,1292.348,1512.236,1262.497,1512.236z"/>
					<path d="M1262.498,1728.41h-0.339c-0.052-0.001-56.197-1.326-56.645-1.335c-31.275-0.467-55.785-48.122-55.785-108.493
						c0-59.851,25.232-108.543,56.246-108.543h56.523c31.014,0,56.246,48.981,56.246,109.186S1293.511,1728.41,1262.498,1728.41z
						 M1205.975,1514.434c-28.591,0-51.851,46.721-51.851,104.148c0,56.977,23.089,103.675,51.467,104.098
						c0.142,0.002,47.19,1.113,56.619,1.336l0.288-0.001c28.591,0,51.851-47.009,51.851-104.79
						c0-57.783-23.26-104.791-51.851-104.791H1205.975z"/>
				</g>
			</g>
			<rect x="1823.28" y="1616.174" width="153.66" height="26.253"/>
			<g>
				<polygon style="fill:#FFFFFF;" points="2112.773,1645.714 1666.114,1642.1 1666.114,1383.999 2112.773,1383.999 				"/>
				<path d="M2112.774,1647.911c-0.006,0-0.013,0-0.017,0l-446.659-3.614c-1.208-0.01-2.18-0.99-2.18-2.198v-258.101
					c0-1.214,0.983-2.198,2.198-2.198h446.659c1.215,0,2.198,0.984,2.198,2.198v261.714c0,0.586-0.234,1.147-0.65,1.56
					C2113.909,1647.683,2113.353,1647.911,2112.774,1647.911z M1668.313,1639.921l442.264,3.577v-257.301h-442.264V1639.921z"/>
			</g>
			<g>
				<g>
					<path style="fill:#FFFFFF;" d="M1168.908,1259.872l7.291,103.469h-21.379c-9.306,0-18.22-3.746-24.732-10.395
						c-6.344-6.477-9.895-15.184-9.888-24.251l0.045-61.966c0.007-9.202,7.495-16.644,16.696-16.594l20.347,0.11
						C1162.961,1250.276,1167.823,1254.305,1168.908,1259.872z"/>
					<path d="M1176.2,1365.538h-21.38c-9.833,0-19.419-4.029-26.301-11.055c-6.788-6.929-10.522-16.088-10.515-25.789l0.045-61.966
						c0.004-5.04,1.974-9.771,5.547-13.323c3.575-3.553,8.421-5.47,13.356-5.467l20.348,0.109
						c6.695,0.035,12.485,4.832,13.764,11.405c0.017,0.087,0.03,0.176,0.034,0.265l7.292,103.469
						c0.043,0.608-0.167,1.207-0.584,1.652C1177.391,1365.285,1176.809,1365.538,1176.2,1365.538z M1136.849,1252.333
						c-3.83,0-7.436,1.486-10.155,4.189c-2.738,2.722-4.249,6.348-4.251,10.208l-0.045,61.966c-0.006,8.544,3.281,16.61,9.26,22.712
						c6.06,6.187,14.502,9.735,23.161,9.735h19.022l-7.116-100.977c-0.929-4.459-4.882-7.7-9.449-7.724l-20.348-0.109
						C1136.903,1252.333,1136.877,1252.333,1136.849,1252.333z"/>
				</g>
				<g>
					<polygon style="fill:#FFFFFF;" points="1230.265,1305.436 1143.836,1300.867 1144.217,1281.83 1230.265,1281.83 					"/>
					<path d="M1230.265,1307.634c-0.039,0-0.077-0.001-0.116-0.003l-86.429-4.569c-1.185-0.062-2.105-1.053-2.082-2.238l0.38-19.037
						c0.024-1.196,1-2.153,2.198-2.153h86.049c1.215,0,2.197,0.984,2.197,2.198v23.606c0,0.603-0.247,1.179-0.684,1.595
						C1231.368,1307.419,1230.828,1307.634,1230.265,1307.634z M1146.077,1298.785l81.991,4.335v-19.092h-81.697L1146.077,1298.785z
						"/>
				</g>
			</g>
			<path style="fill:#FFFFFF;" d="M1896.339,1310.574l-21.426-226.755c-0.336-3.54-3.273-6.244-6.829-6.244l-84.423-1.534
				c-146.388-2.66-292.824-0.079-439.028,7.739c-22.973,0.327-43.691,13.891-53.179,34.816l-82.078,181.168l-20.401,24.406
				c-7.824,9.361-13.43,20.37-16.396,32.204l-11.94,47.637c-3.213,12.818-4.838,25.982-4.838,39.197v70.293
				c0,51.121,41.097,92.745,92.214,93.396l613.645,7.815c11.404,0,21.7-6.581,26.134-17.088l0.104-0.458
				c7.813-18.511,11.696-38.275,11.696-58.368v-156.428C1899.593,1358.399,1898.602,1334.44,1896.339,1310.574z"/>
			<g>
				<path style="fill:#FFFFFF;" d="M1661.626,1633.277c0-49.795-13.555-90.162-30.277-90.162c-1.925,0-3.804,0.555-5.629,1.578
					c-8.274,0-21.396,0-25.893,0c-0.047,0-0.094,0-0.14,0c-2.763,0-5.437,1.102-7.981,3.131c-2.536-2.022-5.2-3.131-7.955-3.131
					c-0.038,0-0.076,0-0.114,0c-5.761,0-25.657,0-31.408,0c-0.047,0-0.094,0-0.14,0c-16.721,0-30.277,39.578-30.277,89.374
					c0,49.563,13.429,89.39,30.043,89.765c0.078,0.002,79.304-0.286,79.304-0.286s0.126-0.052,0.189-0.052
					c16.721,0,30.276-39.605,30.276-89.4c0-0.132-0.003-0.262-0.003-0.394C1661.623,1633.558,1661.626,1633.418,1661.626,1633.277z"
					/>
				<path d="M1551.831,1726.027c-0.028,0-0.032,0-0.034,0c-18.041-0.407-32.181-40.8-32.181-91.96
					c0-51.349,14.264-91.572,32.475-91.572h31.548c2.798,0,5.483,0.875,8.067,2.606c2.586-1.731,5.264-2.606,7.981-2.606h25.481
					c2.034-1.047,4.11-1.577,6.181-1.577c18.211,0,32.475,40.57,32.475,92.359l-0.004,0.45l0.004,0.367
					c0,51.078-14.105,91.149-32.17,91.594c-0.159,0.036-0.322,0.055-0.485,0.056
					C1557.383,1726.011,1552.23,1726.027,1551.831,1726.027z M1631.159,1723.545h0.021H1631.159z M1552.23,1546.89
					c-13.7,0-28.22,35.03-28.22,87.177c0,52.005,14.423,87.264,27.896,87.568c0.586-0.001,74.118-0.268,78.991-0.285
					c0.165-0.033,0.326-0.054,0.453-0.054c13.56,0,28.078-35.04,28.078-87.202l-0.004-0.352l0.004-0.465
					c0-52.618-14.52-87.965-28.08-87.965c-1.485,0-3.017,0.437-4.552,1.296c-0.328,0.184-0.699,0.281-1.075,0.281h-25.893
					c-2.322,0-4.545,0.892-6.753,2.651c-0.798,0.64-1.938,0.64-2.74,0c-2.204-1.76-4.419-2.651-6.582-2.651H1552.23z"/>
			</g>
			<g>
				<path style="fill:#FFFFFF;" d="M1520.976,1503.979h-240.395c-13.975,0-27.149-6.525-35.617-17.642l-8.969-11.774
					c-6.146-8.068-7.118-18.946-2.5-27.976l22.954-44.885c9.295-18.177,27.99-29.614,48.406-29.614h194.71
					c20.686,0,39.579,11.739,48.743,30.284l20.788,42.071c4.234,8.569,3.498,18.76-1.925,26.631l-9.321,13.53
					C1549.493,1496.735,1535.705,1503.979,1520.976,1503.979z"/>
				<path d="M1520.976,1506.176H1280.58c-14.569,0-28.537-6.919-37.366-18.507l-8.968-11.774c-6.618-8.689-7.682-20.585-2.71-30.308
					l22.956-44.886c9.719-19.004,29.016-30.81,50.362-30.81h194.711c21.677,0,41.108,12.073,50.712,31.508l20.788,42.071
					c4.584,9.274,3.785,20.329-2.086,28.85l-9.32,13.53C1550.891,1498.578,1536.429,1506.176,1520.976,1506.176z M1304.853,1374.287
					c-19.687,0-37.486,10.889-46.448,28.416l-22.956,44.886c-4.208,8.226-3.307,18.291,2.294,25.643l8.968,11.774
					c8,10.505,20.661,16.775,33.868,16.775h240.396c14.009,0,27.114-6.888,35.063-18.423l9.32-13.53
					c4.968-7.211,5.644-16.564,1.764-24.409l-20.788-42.072c-8.857-17.924-26.778-29.06-46.772-29.06H1304.853z"/>
			</g>
			<g>
				<g>
					<path style="fill:#FFFFFF;" d="M2058.236,1545.683c-0.038,0-0.076,0-0.114,0c-5.761,0-79.204,0-84.955,0
						c-0.047,0-0.094,0-0.14,0c-16.722,0-30.277,39.083-30.277,88.879c0,49.563,13.429,89.143,30.043,89.517
						c0.078,0.002,85.254-0.424,85.254-0.424s0.126-0.107,0.189-0.107c16.722,0,30.277-39.137,30.277-88.932
						C2088.513,1584.82,2074.958,1545.683,2058.236,1545.683z"/>
					<path d="M1972.758,1726.275c-0.019,0-0.021,0-0.024,0c-18.041-0.407-32.181-40.692-32.181-91.714
						c0-51.922,13.962-91.075,32.475-91.075h85.208c18.513,0,32.475,39.177,32.475,91.13c0,51.464-13.7,90.392-31.954,91.118
						c-0.223,0.076-0.459,0.117-0.699,0.118C1977.672,1726.254,1973.062,1726.275,1972.758,1726.275z M2058.047,1723.655h0.021
						H2058.047z M1973.167,1547.881c-13.7,0-28.22,34.83-28.22,86.68c0,51.856,14.423,87.017,27.896,87.321
						c0.594-0.002,78.219-0.389,84.762-0.423c0.217-0.069,0.436-0.109,0.631-0.109c13.56,0,28.08-34.852,28.08-86.734
						s-14.52-86.735-28.08-86.735H1973.167z"/>
				</g>
				<ellipse cx="2058.236" cy="1633.277" rx="20.63" ry="61.435"/>
			</g>
			<path style="fill:#FFFFFF;" d="M2156.909,1310.573l-21.612-222.246c-0.336-3.541-3.273-6.244-6.829-6.244
				c-0.278,0-260.94-4.506-261.218-4.502c-25.476,0.354-47.905,16.961-55.663,41.295l-49.447,155.129
				c-6.705,21.033-20.77,38.94-39.62,50.433l-4.734,3.084c-11.075,6.753-17.507,18.785-17.507,31.756v255.434
				c0,0,38.491-32.65,41.839-50.886c12.658-68.957,33.997-106.063,53.917-106.063c19.919,0,36.066,47.355,36.066,106.002
				c0,18.539-12.735,67.351-15.573,82.224h31.149h120.358c5.863-5.06,37.369-5.197,47.596-77.515
				c10.154-71.801,41.445-69.733,52.085-69.445c9.426,0.255,48.015,11.679,34.626,146.96h8.77c11.404,0,26.237-17.545,26.237-17.545
				c13.72-19.729,22.814-39.339,22.814-89.644v-156.427C2160.165,1358.398,2159.173,1334.439,2156.909,1310.573z"/>
			<g>
				<path d="M1982.977,1316.608c-0.657,0-1.305-0.292-1.738-0.849l-65.626-84.448c-0.745-0.958-0.571-2.339,0.388-3.084
					l142.598-110.817c0.457-0.357,1.047-0.524,1.62-0.445c0.579,0.073,1.105,0.371,1.464,0.832l65.628,84.449
					c0.356,0.46,0.517,1.044,0.444,1.622c-0.073,0.578-0.371,1.104-0.833,1.461l-142.6,110.816
					C1983.923,1316.457,1983.447,1316.608,1982.977,1316.608z M1920.432,1230.349l62.929,80.978l139.13-108.119l-62.931-80.979
					L1920.432,1230.349z"/>
				<path d="M1946.287,1234.666c-1.122,0-2.082-0.856-2.187-1.997c-0.109-1.208,0.779-2.278,1.987-2.388l80.219-7.37l25.741-77.208
					c0.384-1.15,1.618-1.776,2.779-1.39c1.15,0.384,1.772,1.629,1.388,2.78l-26.194,78.57c-0.275,0.827-1.015,1.413-1.882,1.493
					l-81.648,7.501C1946.422,1234.663,1946.354,1234.666,1946.287,1234.666z"/>
				<path d="M2044.86,1212.774c-1.122,0-2.082-0.856-2.187-1.997c-0.109-1.208,0.779-2.278,1.987-2.389l55.203-5.072
					c1.221-0.12,2.277,0.779,2.391,1.987c0.109,1.208-0.779,2.278-1.987,2.388l-55.203,5.072
					C2044.995,1212.771,2044.927,1212.774,2044.86,1212.774z"/>
				<path d="M1990.389,1291.413c-0.23,0-0.464-0.036-0.695-0.114c-1.15-0.384-1.773-1.629-1.389-2.78l16.337-49.001
					c0.384-1.149,1.616-1.777,2.779-1.39c1.15,0.384,1.772,1.629,1.388,2.78l-16.337,49.001
					C1992.166,1290.831,1991.31,1291.413,1990.389,1291.413z"/>
			</g>
			<g>
				<path style="fill:#FFFFFF;" d="M1741.074,1575.368c1.215-86.256,25.354-154.913,54.953-154.913c30.376,0,55,72.213,55,161.645
					c0,19.363-1.157,38.005-3.276,55.118L1741.074,1575.368z"/>
				<path d="M1847.752,1639.415c-0.382,0-0.762-0.099-1.103-0.296l-106.678-61.85c-0.687-0.399-1.105-1.137-1.095-1.932
					c1.24-88.082,26.344-157.079,57.152-157.079c32.074,0,57.197,71.969,57.197,163.842c0,19.107-1.107,37.742-3.292,55.389
					c-0.09,0.732-0.543,1.369-1.202,1.697C1848.422,1639.339,1848.087,1639.415,1847.752,1639.415z M1743.291,1574.113
					l102.676,59.529c1.899-16.484,2.863-33.806,2.863-51.543c0-43.001-5.678-83.364-15.992-113.651
					c-9.908-29.104-23.325-45.796-36.81-45.796C1768.266,1422.653,1744.696,1490.475,1743.291,1574.113z"/>
			</g>
			<path d="M2111.113,1648.187h-8.771c-0.62,0-1.212-0.262-1.629-0.722c-0.416-0.46-0.62-1.074-0.558-1.692
				c8.595-86.839-4.251-121.685-16.539-135.626c-6.918-7.849-13.466-8.853-15.959-8.921l-0.526-0.015
				c-10.813-0.292-39.604-1.141-49.323,67.571c-8.736,61.771-32.696,71.933-44.211,76.816c-1.841,0.781-3.431,1.455-4.125,2.055
				c-0.399,0.343-0.908,0.533-1.436,0.533h-151.508c-0.654,0-1.277-0.292-1.693-0.797c-0.418-0.504-0.588-1.168-0.466-1.812
				c0.768-4.021,2.262-10.542,3.991-18.092c4.597-20.067,11.543-50.394,11.543-63.72c0-56.267-15.511-103.804-33.87-103.804
				c-12.114,0-25.192,16.163-35.881,44.344c-0.429,1.136-1.706,1.709-2.833,1.276c-1.135-0.43-1.706-1.7-1.275-2.834
				c11.537-30.426,25.739-47.181,39.988-47.181c21.458,0,38.265,47.527,38.265,108.199c0,13.824-6.736,43.231-11.655,64.702
				c-1.382,6.031-2.612,11.401-3.431,15.324h148.089c1.165-0.792,2.71-1.446,4.577-2.238c10.773-4.569,33.188-14.075,41.576-73.387
				c10.268-72.609,41.898-71.68,53.802-71.348l0.519,0.015c3.069,0.083,11.075,1.263,19.136,10.407
				c12.749,14.462,26.119,49.897,17.85,136.552h6.35c8.505,0,20.612-12.103,24.559-16.768
				c12.142-17.477,22.297-36.305,22.297-88.224v-156.428c0-24.781-1.092-48.868-3.245-71.592l-21.612-222.241
				c-0.232-2.429-2.228-4.259-4.644-4.259c-0.281,0-221.497-3.813-265.839-4.577c-1.212-0.022-2.18-1.022-2.159-2.235
				s1.069-2.155,2.236-2.16c2.644,0.046,264.579,4.561,265.788,4.577c4.67,0,8.545,3.54,8.992,8.233l21.612,222.243
				c2.167,22.866,3.266,47.092,3.266,72.011V1538.8c0,48.355-8.157,69.253-23.209,90.898
				C2138.395,1630.61,2123.394,1648.187,2111.113,1648.187z"/>
			<path d="M1700.281,1484.963c-1.215,0-2.198-0.984-2.198-2.198v-123.488c0-13.974,6.938-26.546,18.56-33.632l4.678-3.049
				c18.447-11.248,32.179-28.729,38.724-49.259l49.445-155.129c3.549-11.124,10.144-20.962,19.075-28.451
				c0.933-0.781,2.316-0.657,3.097,0.271c0.779,0.93,0.657,2.316-0.273,3.096c-8.292,6.955-14.417,16.09-17.711,26.419
				l-49.445,155.129c-6.867,21.538-21.275,39.878-40.57,51.642l-4.678,3.049c-10.359,6.317-16.509,17.485-16.509,29.914v123.488
				C1702.479,1483.979,1701.496,1484.963,1700.281,1484.963z"/>
			<g>
				<path style="fill:#FFFFFF;" d="M1624.799,1364.835c31.555-5.852,92.2-17.719,112.352-26.013c1.68-0.691,3.479,0.654,3.295,2.461
					l-6.075,59.737c-1.428,14.041-12.366,25.234-26.37,26.984l-81.39,10.174c-8.568,1.071-17.029-2.663-22.013-9.713l-18.355-25.966
					c-2.425-3.431-2.266-8.058,0.39-11.313l5.892-7.223C1600.682,1373.964,1612.112,1367.188,1624.799,1364.835z"/>
				<path d="M1623.689,1440.557c-8.249,0-16.046-3.978-20.885-10.825l-18.354-25.965c-2.985-4.219-2.788-9.964,0.479-13.97
					l5.895-7.224c8.474-10.388,20.397-17.454,33.574-19.899c33.327-6.179,92.18-17.76,111.917-25.885
					c1.511-0.619,3.189-0.411,4.496,0.563c1.305,0.973,1.987,2.526,1.824,4.151l-6.075,59.737
					c-1.543,15.153-13.174,27.054-28.286,28.943l-81.388,10.174C1625.816,1440.492,1624.749,1440.557,1623.689,1440.557z
					 M1625.2,1366.996c-12.155,2.254-23.155,8.773-30.973,18.356l-5.893,7.223c-2.024,2.482-2.146,6.041-0.296,8.655l18.354,25.966
					c4.526,6.403,12.189,9.769,19.947,8.802l81.388-10.174c13.067-1.633,23.125-11.924,24.458-25.026l6.075-59.736l-1.109-2.239
					l0.837,2.032C1717.882,1349.128,1658.692,1360.784,1625.2,1366.996z"/>
			</g>
			<g>
				<path style="fill:#FFFFFF;" d="M1159.983,1406.939c-2.293,9.165,3.02,18.514,12.067,21.234l31.783,9.558
					c4.865,1.289,9.991-0.847,12.5-5.21l18.87-32.81c3.052-5.306,3.301-11.773,0.667-17.299l-0.201-0.422
					c-3.373-7.075-9.58-12.399-17.102-14.601c-10.212-2.989-25.832-8.532-41.117-17.764c-1.349-0.815-3.1-0.117-3.483,1.413
					L1159.983,1406.939z"/>
				<path d="M1206.672,1440.299c-1.131,0-2.273-0.144-3.401-0.443l-31.855-9.579c-10.189-3.064-16.146-13.551-13.565-23.872
					l13.985-55.901c0.35-1.403,1.318-2.525,2.655-3.076c1.333-0.549,2.861-0.428,4.097,0.317
					c15.007,9.065,30.359,14.54,40.598,17.536c8.086,2.367,14.818,8.112,18.466,15.763l0.202,0.423
					c2.944,6.179,2.665,13.409-0.745,19.341l-18.87,32.81C1215.821,1437.818,1211.355,1440.299,1206.672,1440.299z
					 M1162.114,1407.472c-2.011,8.04,2.633,16.21,10.569,18.597l31.784,9.558c3.835,1.016,7.953-0.706,9.962-4.202l18.87-32.809
					c2.693-4.68,2.912-10.383,0.59-15.258l-0.202-0.422c-3.112-6.525-8.846-11.422-15.736-13.437
					c-10.487-3.07-26.224-8.684-41.634-17.993l-0.217,0.064L1162.114,1407.472z"/>
			</g>
			<path d="M1775.444,1366.966c-1.998,0-3.938-0.737-5.462-2.128c-2.09-1.906-3.019-4.703-2.489-7.482
				c15.138-79.311,44.866-182.681,56.943-223.444c2.427-8.19,9.79-14.038,18.322-14.552l7.105-0.428
				c3.517-0.215,6.822,0.981,9.384,3.352c2.562,2.37,4.007,5.597,4.069,9.087c0.26,14.62,0.916,49.331,2.412,117.553
				c1.813,82.823-60.937,109.914-88,117.718C1776.972,1366.859,1776.203,1366.966,1775.444,1366.966z M1850.643,1123.303
				c-0.172,0-0.341,0.005-0.515,0.015l-7.103,0.428c-6.696,0.403-12.47,4.99-14.374,11.414
				c-9.41,31.754-41.316,141.683-56.84,223.019c-0.247,1.286,0.167,2.529,1.133,3.411c0.966,0.881,2.298,1.194,3.569,0.827
				c26.084-7.522,86.569-33.629,84.822-113.398c-1.494-68.23-2.152-102.95-2.412-117.573c-0.041-2.28-0.983-4.39-2.657-5.938
				C1854.716,1124.077,1852.735,1123.303,1850.643,1123.303z M1826.544,1134.536h0.021H1826.544z"/>
			<path d="M1758.1,1616.8c-0.011,0-0.021,0-0.032,0l-510.085-7.704c-52.038-0.663-94.378-43.546-94.378-95.594v-70.294
				c0-13.382,1.65-26.75,4.904-39.731l11.94-47.637c3.028-12.082,8.85-23.52,16.839-33.078l20.211-24.178l81.955-180.895
				c9.792-21.597,31.438-35.769,55.147-36.107c145.536-7.784,293.295-10.387,439.101-7.74l79.908,1.452
				c1.212,0.023,2.178,1.024,2.157,2.237c-0.021,1.2-1.002,2.158-2.197,2.158c-0.013,0-0.026,0-0.041,0l-79.907-1.452
				c-145.697-2.649-293.353-0.046-438.869,7.736c-22.101,0.317-42.203,13.477-51.293,33.53l-82.079,181.166
				c-0.081,0.181-0.189,0.35-0.315,0.502l-20.402,24.407c-7.567,9.053-13.082,19.887-15.951,31.329l-11.94,47.637
				c-3.165,12.631-4.77,25.639-4.77,38.662v70.294c0,49.655,40.394,90.567,90.043,91.199l510.09,7.704
				c1.215,0.018,2.182,1.017,2.165,2.231C1760.278,1615.838,1759.3,1616.8,1758.1,1616.8z"/>
			<g>
				<g>
					<path style="fill:#FFFFFF;" d="M1841.603,1629.09c0-58.68-24.199-106.25-54.049-106.25c-0.392,0-0.78,0.042-1.17,0.058
						c-11.372,0-45.134,0-55.101,0c-0.083,0-0.167,0-0.25,0c-29.851,0-54.05,47.541-54.05,106.221
						c0,58.406,23.973,105.791,53.632,106.232c0.139,0.002,56.827,0.067,56.939,0.067c29.851,0,54.049-47.58,54.049-106.26
						c0-0.007,0-0.013,0-0.02C1841.602,1629.123,1841.603,1629.107,1841.603,1629.09z"/>
					<path d="M1787.554,1737.616c-0.983,0-56.892-0.065-56.974-0.067c-31.286-0.467-55.795-48.094-55.795-108.43
						c0-59.782,25.232-108.419,56.248-108.419l55.649-0.021c0.29-0.019,0.579-0.036,0.871-0.036
						c31.014,0,56.246,48.649,56.246,108.447v0.048C1843.8,1688.963,1818.567,1737.616,1787.554,1737.616z M1731.033,1525.096
						c-28.593,0-51.853,46.665-51.853,104.024c0,56.942,23.089,103.612,51.467,104.035c0.526,0.002,56.69,0.067,56.907,0.067
						c28.591,0,51.851-46.682,51.851-104.063v-0.069c0-57.375-23.26-104.052-51.851-104.052c-0.193,0-0.386,0.014-0.577,0.027
						l-0.502,0.029L1731.033,1525.096z"/>
				</g>
				<path d="M1838.014,1669.445c-0.14,0-0.281-0.013-0.425-0.041c-1.191-0.234-1.968-1.389-1.734-2.579
					c2.356-12.023,3.549-24.718,3.549-37.735c0-57.375-23.26-104.052-51.851-104.052c-0.713,0-1.423,0.029-2.129,0.087
					c-1.2,0.101-2.268-0.799-2.371-2.009c-0.099-1.21,0.8-2.272,2.011-2.371c0.826-0.069,1.657-0.102,2.489-0.102
					c31.014,0,56.246,48.649,56.246,108.447c0,13.3-1.221,26.28-3.631,38.58C1839.963,1668.719,1839.044,1669.445,1838.014,1669.445
					z"/>
				<ellipse cx="1787.554" cy="1629.09" rx="36.828" ry="72.397"/>
			</g>
			<g>
				<g>
					<path style="fill:#FFFFFF;" d="M1683.806,1299.312h-435.607c-9.164,0-15.283-9.445-11.537-17.808l64.958-145.03
						c5.267-11.759,14.927-20.031,29.523-20.302l24.775-1.366c140.577-7.753,281.426-9.365,422.144-4.832
						c6.654,0.214,11.27,6.715,9.279,13.068l-40.801,130.189C1737.946,1280.65,1712.541,1299.312,1683.806,1299.312z"/>
					<path d="M1683.806,1301.51h-435.607c-5.052,0-9.708-2.531-12.455-6.772c-2.745-4.239-3.152-9.524-1.086-14.133l64.954-145.029
						c6.125-13.667,17.307-21.339,31.49-21.601l24.696-1.364c140.053-7.724,282.148-9.352,422.334-4.834
						c3.865,0.125,7.365,2.005,9.603,5.157s2.858,7.075,1.702,10.765l-40.801,130.188
						C1739.711,1282.372,1713.657,1301.51,1683.806,1301.51z M1622.741,1109.679c-89.049,0-178.279,2.443-266.702,7.32
						l-24.775,1.367c-15.953,0.297-23.827,10.499-27.638,19.006l-64.957,145.029c-1.455,3.245-1.167,6.964,0.764,9.948
						c1.933,2.985,5.21,4.766,8.766,4.766h435.607c27.919,0,52.287-17.901,60.637-44.542l40.801-130.19
						c0.743-2.366,0.343-4.883-1.092-6.906s-3.682-3.229-6.161-3.308C1726.436,1110.509,1674.617,1109.679,1622.741,1109.679z"/>
				</g>
				<g>
					<path style="fill:#FFFFFF;" d="M1751.806,1143.198c0,0-197.025-1.912-302.954,3.164l-8.325,0.134
						c-20.226,0.325-36.45,16.814-36.45,37.042v24.716c0,16.161,6.298,31.685,17.558,43.278l0.356,0.368
						c9.481,9.762,22.51,15.27,36.118,15.27h10.332l14.292-52.063c2.09-7.617,9.015-12.896,16.912-12.896h47.064
						c9.686,0,17.539,7.852,17.539,17.539v47.421h97.626l14.292-52.063c2.091-7.617,9.015-12.896,16.913-12.896h47.063
						c0.154,0,0.276,0.081,0.413,0.123l18.242-50.578C1760.299,1147.595,1756.821,1143.338,1751.806,1143.198z"/>
					<path d="M1661.875,1269.367h-97.625c-1.215,0-2.198-0.984-2.198-2.198v-47.421c0-8.458-6.882-15.341-15.344-15.341h-47.063
						c-6.886,0-12.97,4.639-14.794,11.279l-14.292,52.064c-0.262,0.955-1.129,1.616-2.118,1.616h-10.331
						c-14.12,0-27.859-5.808-37.696-15.936l-0.356-0.368c-11.721-12.07-18.178-27.984-18.178-44.809v-24.716
						c0-21.295,17.32-38.897,38.612-39.239l8.326-0.134c104.706-5.017,301.037-3.181,303.01-3.163c0.013,0,0.026,0,0.039,0.001
						c3.307,0.091,6.311,1.658,8.039,4.189c1.496,2.192,1.846,4.855,0.961,7.308l-18.243,50.58c-0.397,1.102-1.59,1.702-2.706,1.356
						c-0.019-0.005-0.047-0.015-0.082-0.027h-46.754c-6.889,0-12.972,4.639-14.797,11.279l-14.292,52.064
						C1663.731,1268.706,1662.864,1269.367,1661.875,1269.367z M1566.447,1264.972h93.751l13.85-50.448
						c2.343-8.544,10.17-14.511,19.033-14.511h45.975l17.677-49.004c0.406-1.126,0.242-2.312-0.459-3.341
						c-0.931-1.365-2.616-2.214-4.511-2.271c-3.047-0.031-198.443-1.839-302.806,3.161l-8.395,0.136
						c-18.908,0.304-34.288,15.935-34.288,34.844v24.716c0,15.675,6.015,30.502,16.938,41.748l0.356,0.368
						c9.013,9.279,21.604,14.602,34.542,14.602h8.655l13.85-50.448c2.344-8.544,10.17-14.511,19.031-14.511h47.063
						c10.884,0,19.739,8.853,19.739,19.735V1264.972z"/>
				</g>
			</g>
			<path style="fill:#FFFFFF;" d="M1703.289,1645.714h-499.83c-12.262,0-23.993-5.009-32.474-13.865l-3.939-4.114
				c-10.074-10.521-16.805-23.792-19.341-38.136l-10.21-57.744c-1.061-6.001,0.344-12.177,3.897-17.128l14.205-19.793l68.016,9.463
				c8.559,1.191,16.658,4.601,23.491,9.891l3.257,2.522c4.739,3.669,10.563,5.66,16.557,5.66h269.655
				c6.287,0,12.378-2.191,17.226-6.195l1.526-1.26c8.06-6.659,18.021-10.596,28.456-11.247l202.312-12.53l-34.223,103.184
				c-4.558,13.741-11.528,26.56-20.583,37.854C1731.288,1632.275,1720.587,1645.714,1703.289,1645.714z"/>
			<path d="M1703.29,1647.911h-499.83c-12.797,0-25.211-5.301-34.063-14.543l-3.938-4.114
				c-10.408-10.87-17.297-24.451-19.917-39.272l-10.211-57.744c-1.157-6.545,0.401-13.394,4.277-18.792l14.204-19.793
				c0.476-0.662,1.294-1.011,2.088-0.895l68.017,9.463c8.925,1.241,17.408,4.813,24.535,10.331l3.255,2.521
				c4.331,3.353,9.734,5.2,15.213,5.2h269.655c5.764,0,11.384-2.021,15.826-5.692l1.526-1.26c8.472-7,18.747-11.063,29.717-11.747
				l202.314-12.529c0.706-0.064,1.431,0.274,1.876,0.852c0.446,0.578,0.575,1.34,0.345,2.033l-34.222,103.184
				c-4.657,14.036-11.706,27.002-20.955,38.537C1732.544,1634.228,1721.436,1647.911,1703.29,1647.911z M1156.609,1497.293
				l-13.43,18.715c-3.189,4.442-4.472,10.078-3.522,15.465l10.211,57.743c2.47,13.964,8.959,26.758,18.766,37l3.938,4.114
				c8.024,8.38,19.284,13.187,30.887,13.187h499.83c16.052,0,26.179-12.483,26.28-12.61c8.925-11.133,15.726-23.639,20.217-37.178
				l33.198-100.098l-199.067,12.329c-10.037,0.627-19.438,4.344-27.192,10.749l-1.526,1.26c-5.228,4.32-11.842,6.699-18.625,6.699
				h-269.655c-6.447,0-12.805-2.174-17.904-6.12l-3.255-2.521c-6.519-5.047-14.284-8.316-22.449-9.453L1156.609,1497.293z"/>
			<g>
				<path d="M1796.751,1237.285c-9.761,37.979-21.954,88.406-28.231,121.277c-0.829,4.342,3.199,8.051,7.446,6.827
					c6.487-1.87,15.826-5.122,25.988-10.462c2.235-1.175,3.6-3.54,3.497-6.064l-4.531-111.128
					C1800.823,1235.297,1797.359,1234.921,1796.751,1237.285z"/>
				<path d="M1906.907,1353.376h-20.478c-6.754,0-12.653-4.57-14.341-11.11l-8.014-31.054c-3.871-14.999-3.185-30.811,1.971-45.418
					l2.832-8.023c3.642-10.32,13.397-17.222,24.341-17.222h10.606c10.313,0,18.994,7.717,20.203,17.959l7.877,66.746
					C1933.671,1340.223,1921.978,1353.376,1906.907,1353.376z"/>
				<polygon points="1876.452,1298.642 1793.812,1298.139 1796.111,1274.745 1878.75,1275.249 				"/>
				<polygon points="1881.89,1350.213 1798.991,1354.292 1798.991,1330.785 1881.89,1326.706 				"/>
			</g>
		</g>
		<g>
			<g>
				<g>
					<g>
						<g>
							<polygon style="fill:#FFFFFF;" points="1420.591,2008.861 1414.898,2059.437 1382.896,2063.208 1383.767,2003.196 							"/>
							<path d="M1382.896,2065.405c-0.541,0-1.067-0.199-1.472-0.565c-0.47-0.425-0.734-1.031-0.725-1.664l0.871-60.012
								c0.009-0.635,0.294-1.236,0.779-1.646c0.485-0.411,1.129-0.59,1.753-0.494l36.825,5.665c1.165,0.179,1.981,1.246,1.85,2.417
								l-5.693,50.576c-0.116,1.015-0.914,1.818-1.927,1.937l-32.003,3.771C1383.067,2065.4,1382.981,2065.405,1382.896,2065.405z
								 M1385.928,2005.751l-0.798,54.981l27.78-3.274l5.262-46.747L1385.928,2005.751z"/>
						</g>
						<g>
							<g>
								<path style="fill:#FFFFFF;" d="M1376.586,2151.28c13.283,2.107,35.088,4.037,60.77,0.43
									c8.417-1.182,14.11-9.868,12.213-18.704c-5.286-24.616-14.332-71.295-30.706-93.022l-4.316,11.684l-5.565-11.075
									c-0.762-1.517-2.156-2.548-3.754-2.778l-8.491-1.549c-2.614-0.375-5.077,1.464-5.661,4.228l-2.143,10.15l-8.203-13.624
									l-15.997,97.039C1363.591,2142.351,1368.865,2150.055,1376.586,2151.28z"/>
								<path d="M1408.34,2155.926c-12.936,0-23.923-1.179-32.097-2.475c-8.85-1.404-14.99-10.236-13.687-19.689l16.007-97.097
									c0.148-0.909,0.85-1.628,1.753-1.801c0.919-0.177,1.824,0.236,2.296,1.024l5.324,8.841l0.989-4.687
									c0.818-3.871,4.389-6.496,8.122-5.95l8.575,1.562c2.221,0.319,4.24,1.802,5.322,3.954l3.292,6.553l2.562-6.938
									c0.279-0.753,0.946-1.295,1.743-1.412c0.809-0.116,1.592,0.211,2.075,0.851c15.554,20.641,24.58,63.172,29.971,88.584
									l1.129,5.3c1.071,4.984,0.03,10.212-2.856,14.34c-2.71,3.88-6.687,6.366-11.2,7
									C1427.152,2155.362,1417.281,2155.926,1408.34,2155.926z M1381.928,2043.27l-15.028,91.148
									c-0.968,7.044,3.528,13.66,10.03,14.691c13.532,2.148,34.939,3.962,60.122,0.425c3.288-0.462,6.204-2.296,8.208-5.165
									c2.187-3.132,2.977-7.105,2.161-10.901l-1.131-5.31c-5.03-23.709-13.269-62.534-26.823-83.466l-2.859,7.738
									c-0.305,0.821-1.067,1.383-1.94,1.433c-0.888,0.037-1.695-0.426-2.086-1.207l-5.565-11.074
									c-0.436-0.869-1.223-1.464-2.103-1.59l-8.573-1.562c-1.382-0.205-2.775,0.906-3.116,2.521l-2.142,10.149
									c-0.187,0.883-0.895,1.563-1.785,1.713c-0.893,0.16-1.781-0.261-2.247-1.032L1381.928,2043.27z"/>
							</g>
							<path d="M1414.793,2139.69c-21.919,0-39.379-5.393-40.374-5.707c-1.157-0.365-1.798-1.598-1.436-2.755
								c0.367-1.157,1.607-1.8,2.755-1.437c0.324,0.102,32.838,10.128,64.107,2.759c1.178-0.287,2.365,0.452,2.644,1.634
								c0.277,1.181-0.455,2.365-1.635,2.643C1431.961,2138.923,1423.06,2139.69,1414.793,2139.69z"/>
							<path d="M1421.967,2102.109c-0.032,0-0.064-0.001-0.097-0.002l-29.926-1.284c-1.213-0.052-2.152-1.077-2.101-2.29
								c0.054-1.212,1.112-2.126,2.29-2.101l29.926,1.284c1.213,0.051,2.152,1.077,2.101,2.29
								C1424.109,2101.186,1423.137,2102.109,1421.967,2102.109z"/>
						</g>
					</g>
					<g>
						<g>
							<polygon style="fill:#FFFFFF;" points="1271.362,1980.786 1265.503,2054.61 1227.066,2054.32 1226.35,1980.447 							"/>
							<path d="M1265.502,2056.808c-0.006,0-0.011,0-0.017,0l-38.437-0.29c-1.197-0.009-2.169-0.978-2.18-2.176l-0.715-73.873
								c-0.006-0.589,0.225-1.157,0.642-1.574c0.416-0.417,0.989-0.687,1.573-0.645l45.012,0.339
								c0.609,0.004,1.191,0.263,1.603,0.713c0.412,0.45,0.618,1.05,0.571,1.659l-5.861,73.824
								C1267.601,2055.927,1266.648,2056.808,1265.502,2056.808z M1229.242,2052.139l34.233,0.259l5.511-69.432l-40.415-0.304
								L1229.242,2052.139z"/>
						</g>
						<g>
							<g>
								<path style="fill:#FFFFFF;" d="M1273.469,2097.766c-0.004,6.988-4.549,13.088-10.926,14.625
									c-22.178,5.344-72.134,17.236-86.366,19.394c-18.471,2.801-41.033-3.418-50.602-15.04
									c-9.568-11.621,7.672-33.116,37.487-48.876c23.604-12.477,44.245-44.031,53.222-45.289
									c8.978-1.258,25.296,26.71,25.296,26.71l27.513-12.094C1269.092,2037.196,1273.492,2062.326,1273.469,2097.766z"/>
								<path d="M1167.034,2134.652c-17.193,0-34.921-6.508-43.158-16.51c-2.77-3.366-3.736-7.633-2.792-12.341
									c2.519-12.576,18.211-27.856,40.949-39.876c12.683-6.703,24.659-19.229,34.282-29.294
									c8.633-9.031,14.872-15.556,19.664-16.227c9.09-1.262,22.123,18.861,26.494,26.091l25.734-11.312
									c0.618-0.272,1.328-0.245,1.921,0.075c0.597,0.319,1.011,0.893,1.129,1.558c0.043,0.253,4.431,25.727,4.408,60.95
									c-0.004,7.952-5.307,15-12.608,16.76c-21.219,5.114-72.133,17.243-86.552,19.431
									C1173.412,2134.426,1170.23,2134.652,1167.034,2134.652z M1216.956,2024.732c-0.125,0-0.247,0.009-0.367,0.025
									c-3.279,0.459-9.992,7.48-17.097,14.911c-9.841,10.295-22.091,23.107-35.402,30.143
									c-21.275,11.245-36.464,25.711-38.696,36.854c-0.684,3.418-0.054,6.338,1.876,8.683c8.88,10.782,30.22,17.047,48.576,14.264
									c14.251-2.162,65.019-14.258,86.182-19.358c5.352-1.29,9.238-6.542,9.243-12.49c0.019-28.139-2.8-49.948-3.906-57.409
									l-24.902,10.945c-1.019,0.448-2.221,0.06-2.781-0.904C1233.36,2039.569,1222.293,2024.732,1216.956,2024.732z"/>
							</g>
							<path d="M1169.339,2119.718c-14.4,0-27.059-2.917-35.029-10.799c-0.863-0.853-0.871-2.245-0.017-3.107
								c0.852-0.863,2.243-0.871,3.107-0.017c28.035,27.715,125.683-13.563,126.668-13.983c1.124-0.476,2.406,0.041,2.886,1.157
								c0.476,1.116-0.041,2.407-1.157,2.884C1262.764,2097.15,1209.361,2119.718,1169.339,2119.718z"/>
							<path d="M1211.829,2075.297c-0.507,0-1.015-0.174-1.431-0.529l-17.078-14.644c-0.921-0.791-1.026-2.178-0.236-3.099
								c0.79-0.921,2.176-1.026,3.099-0.238l17.078,14.644c0.921,0.791,1.026,2.178,0.236,3.099
								C1213.063,2075.036,1212.447,2075.297,1211.829,2075.297z"/>
						</g>
					</g>
					<path d="M1329.718,1527.918c0,0,145.762,13.328,133.718-37.008c-7.658-32.006-115.185-8.666-146.628-0.479
						c-5.371,1.398-129.198-18.314-129.198-18.314l29.586,70.354L1329.718,1527.918z"/>
					<g>
						<path style="fill:#FFFFFF;" d="M1438.312,1489.788c0,0,9.117,241.69,14.193,321.443
							c5.077,79.753-17.591,207.721-17.591,207.721l-59.283-3.787c0,0-1.434-123.798-4.423-181.357
							c-0.565-10.875-2.807-21.588-6.551-31.814c-7.534-20.579-20.818-60.444-25.491-97.13
							c-6.669-52.36-30.772-135.168-30.772-135.168s-26.531,412.201-28.982,444.583c0,0-46.557,1.869-63.075-9.5
							c0,0-27.374-150.581-21.943-232.355c5.431-81.773,3.72-285.059,3.72-285.059L1438.312,1489.788z"/>
						<path d="M1434.916,2021.149c-0.047,0-0.094-0.001-0.142-0.004l-59.283-3.787c-1.148-0.073-2.045-1.018-2.058-2.167
							c-0.015-1.238-1.468-124.413-4.421-181.268c-0.547-10.545-2.706-21.033-6.421-31.172
							c-7.545-20.61-20.904-60.697-25.606-97.609c-5.047-39.62-20.305-97.413-27.224-122.477
							c-4.509,69.979-25.981,402.992-28.159,431.781c-0.084,1.112-0.989,1.985-2.103,2.029c-1.929,0.077-47.484,1.764-64.409-9.884
							c-0.481-0.331-0.811-0.841-0.914-1.417c-0.275-1.509-27.359-151.787-21.975-232.894c5.365-80.756,3.734-282.863,3.717-284.895
							c-0.004-0.589,0.228-1.157,0.646-1.573c0.416-0.416,1.03-0.687,1.573-0.643l240.195,2.423
							c1.174,0.012,2.131,0.943,2.174,2.115c0.092,2.416,9.176,242.573,14.191,321.387c5.037,79.102-17.393,206.961-17.621,208.243
							C1436.891,2020.389,1435.974,2021.149,1434.916,2021.149z M1377.803,2013.101l55.28,3.531
							c2.79-16.344,21.891-132.002,17.228-205.262c-4.768-74.927-13.206-295.473-14.116-319.407l-235.864-2.379
							c0.163,22.461,1.326,206.679-3.743,282.985c-5.129,77.255,19.473,218.109,21.745,230.893
							c14.399,9.04,50.263,8.861,59.034,8.674c3.17-43.915,28.576-438.531,28.835-442.583c0.069-1.064,0.893-1.926,1.953-2.043
							c1.064-0.105,2.052,0.545,2.35,1.571c0.243,0.829,24.226,83.574,30.842,135.503c4.646,36.486,17.891,76.217,25.374,96.654
							c3.863,10.552,6.112,21.472,6.682,32.456C1376.151,1886.599,1377.602,1996.75,1377.803,2013.101z"/>
					</g>
					<path d="M1415.63,1572.817c-31.267,0-44.786-34.853-44.922-35.21c-0.429-1.134,0.144-2.401,1.279-2.83
						c1.129-0.425,2.399,0.142,2.833,1.277c0.124,0.333,12.949,33.156,41.945,32.352c1.178-0.039,2.227,0.916,2.264,2.131
						c0.034,1.214-0.918,2.225-2.131,2.262C1416.474,1572.811,1416.049,1572.817,1415.63,1572.817z"/>
					<path d="M1214.585,1560.783c-0.856,0-1.67-0.504-2.024-1.343c-0.472-1.118,0.051-2.407,1.167-2.88
						c18.455-7.796,26.769-29.344,26.85-29.561c0.429-1.135,1.695-1.709,2.833-1.28c1.135,0.428,1.708,1.696,1.279,2.832
						c-0.36,0.957-9.08,23.536-29.25,32.059C1215.16,1560.726,1214.87,1560.783,1214.585,1560.783z"/>
					<path d="M1423.459,1996.897c-0.109,0-0.221-0.008-0.333-0.025c-1.2-0.184-2.026-1.304-1.841-2.504
						c5.944-39.007,12.996-124.145,9.249-182.998c-0.809-12.727-1.921-29.578-3.198-48.913
						c-3.013-45.673-7.14-108.224-10.187-160.89c-0.071-1.211,0.854-2.25,2.067-2.321c1.176-0.063,2.251,0.856,2.32,2.068
						c3.047,52.648,7.174,115.188,10.187,160.854c1.275,19.339,2.388,36.194,3.198,48.924c3.768,59.176-3.318,144.743-9.292,183.94
						C1425.463,1996.118,1424.528,1996.897,1423.459,1996.897z"/>
				</g>
				<g>
					<g>
						<path style="fill:#FFFFFF;" d="M920.134,1216.7c-6.726-1.803-4.324,4.323,0.785,9.15c3.782,3.574,8.982,6.616,11.955,8.212
							c0.729,0.391,0.54,1.504-0.28,1.609c-25.965,3.316-44.1,17.882-52.995,26.793c-4.965,4.974-4.434,13.286,1.327,17.313
							c22.521,15.74,82.081-0.917,89.195-0.541c6.411,0.338,54.088,31.158,54.088,31.158c20.14,18.232,38.794,38.572,58.763,43.783
							c36.665,9.567,117.8-76.343,131.418-115.576c0,0-30.389-37.568-68.981-47.477c-2.671-0.686-63.77,78.775-66.498,78.068
							c-43.65-11.309-79.441-16.459-101.356-25.588c-5.665-2.36-10.938-5.539-15.815-9.26
							C956.125,1230.056,944.136,1223.135,920.134,1216.7z"/>
						<path d="M1089.11,1357.117c-2.343,0-4.579-0.264-6.693-0.814c-16.988-4.434-32.627-19.069-49.186-34.565
							c-3.421-3.2-6.869-6.429-10.365-9.595c-23.151-14.961-49.216-30.517-52.86-30.713c-1.36-0.039-5.934,0.769-11.243,1.739
							c-21.284,3.89-60.892,11.131-79.096-1.59c-3.21-2.246-5.253-5.792-5.601-9.73c-0.358-4.059,1.092-8.045,3.979-10.937
							c8.329-8.342,25.649-22.525,50.407-26.837c-2.837-1.706-6.288-4.026-9.041-6.627c-1.251-1.181-7.374-7.28-5.112-11.329
							c0.721-1.293,2.414-2.611,6.404-1.542c23.904,6.408,36.237,13.335,42.372,18.018c4.966,3.79,10.123,6.81,15.329,8.978
							c13.258,5.524,32.241,9.698,54.22,14.529c13.781,3.03,29.37,6.456,45.958,10.733c3.676-3.219,19.406-22.638,32.166-38.391
							c32.505-40.131,32.949-40.022,35.209-39.45c38.851,9.975,68.884,46.667,70.143,48.224c0.478,0.59,0.616,1.385,0.367,2.103
							C1203.546,1276.547,1130.046,1357.117,1089.11,1357.117z M969.86,1277.031c0.133,0,0.26,0.003,0.378,0.01
							c6.659,0.352,47.121,26.308,55.164,31.507c0.099,0.064,0.193,0.137,0.281,0.217c3.558,3.22,7.071,6.507,10.552,9.764
							c16.138,15.103,31.383,29.369,47.293,33.52c15.294,3.998,42.333-10.566,72.285-38.956
							c26.134-24.773,48.967-54.965,56.083-74.048c-4.944-5.776-32.494-36.512-66.147-45.562
							c-3.635,3.222-19.065,22.271-31.584,37.727c-33.069,40.826-33.52,40.701-35.803,40.108
							c-16.837-4.363-32.692-7.849-46.681-10.924c-22.185-4.877-41.344-9.089-54.967-14.764c-5.552-2.312-11.039-5.523-16.303-9.541
							c-5.822-4.442-17.633-11.044-40.844-17.266c-0.579-0.155-0.992-0.217-1.275-0.238c0.324,1.07,1.588,3.26,4.137,5.669
							c3.644,3.442,8.76,6.41,11.485,7.874c1.178,0.631,1.805,1.941,1.562,3.258c-0.242,1.307-1.285,2.298-2.601,2.467
							c-25.529,3.26-43.362,17.793-51.718,26.166c-1.968,1.97-2.955,4.684-2.713,7.445c0.234,2.641,1.599,5.014,3.743,6.514
							c16.702,11.671,56.609,4.374,75.787,0.869C964.534,1277.646,967.984,1277.031,969.86,1277.031z M1079.463,1267.063h0.021
							H1079.463z"/>
					</g>
					<path d="M1329.071,1131.16c14.763,0.025,28.957,5.708,39.604,15.936c16.363,15.72,39.041,42,48.112,73.676
						c8.943,31.229-0.241,82.076,0.672,111.645c2.433,78.85,45.192,156.493,45.192,156.493s-7.651-12.944-41.41,7.285
						c-31.438,18.838-60.159,32.474-120.688,26.425c-54.751-5.471-86.975-14.656-105.067-21.978
						c-11.983-4.85-18.518-17.787-15.209-30.284c4.78-18.05,11.315-46.376,13.636-73.682
						c3.257-38.312-15.268-112.497-15.268-112.497s-69.513-19.266-70.071-66.865c0,0,33.089-69.494,102.355-80.617
						C1262.948,1128.343,1304.656,1131.118,1329.071,1131.16z"/>
					<path d="M1331.251,1258.363c0,0,21.59,46.444-17.85,68.873l136.676,64.117l19.177-61.348
						c24.244-79.952-17.829-167.248-97.385-192.76c-32.208-10.328-56.818-8.459-56.818-8.459L1331.251,1258.363z"/>
					<path style="fill:#FFFFFF;" d="M1321.104,1330.6c-0.569,0-1.135-0.219-1.564-0.656c-0.852-0.864-0.843-2.255,0.021-3.107
						c24.065-23.712,20.436-96.468,20.395-97.201c-0.064-1.211,0.865-2.247,2.077-2.312c1.182-0.084,2.247,0.864,2.313,2.076
						c0.165,3.07,3.76,75.479-21.7,100.568C1322.218,1330.39,1321.662,1330.6,1321.104,1330.6z"/>
				</g>
				<g>
					<g>
						<g>
							<path style="fill:#FFFFFF;" d="M1324.105,1129.808l-2.428-77.175l-57.583,13.27l1.165,53.651
								c0.098,7.783-5.057,14.655-12.557,16.739l-6.769,1.881c-3.488,0.969-3.854,5.77-0.553,7.256l25.44,11.455
								c24.385,10.98,51.09,5.492,77.134-0.585l1.125-0.263c3.334-0.778,4.005-5.238,1.038-6.948
								C1339.972,1143.242,1324.282,1133.6,1324.105,1129.808z"/>
							<path d="M1302.156,1165.39c-11.105,0.001-21.812-1.806-32.237-6.501l-25.441-11.454c-2.361-1.062-3.755-3.415-3.558-5.994
								c0.195-2.578,1.934-4.691,4.425-5.383l6.768-1.881c6.53-1.814,11.032-7.817,10.947-14.595l-1.163-53.631
								c-0.021-1.041,0.689-1.955,1.704-2.189l57.583-13.27c0.637-0.147,1.313-0.001,1.835,0.401
								c0.521,0.401,0.835,1.014,0.854,1.672l2.425,77.075c0.193,0.55,2.305,4.511,24.917,17.547
								c2.137,1.231,3.283,3.603,2.921,6.043c-0.36,2.445-2.15,4.387-4.556,4.949l-1.127,0.263
								C1332.15,1162.245,1316.806,1165.39,1302.156,1165.39z M1266.331,1067.644l1.125,51.863
								c0.112,8.79-5.715,16.556-14.166,18.904l-6.768,1.881c-1.049,0.292-1.2,1.209-1.219,1.484
								c-0.022,0.274-0.013,1.205,0.981,1.652l25.438,11.454c22.932,10.325,47.868,5.781,75.734-0.721l1.127-0.263
								c0.974-0.226,1.17-1.062,1.206-1.312c0.047-0.319,0.069-1.11-0.768-1.592c-26.846-15.477-27.031-19.405-27.11-21.082
								c0-0.011,0-0.023,0-0.034l-2.343-74.502L1266.331,1067.644z M1326.287,1129.605L1326.287,1129.605L1326.287,1129.605z"/>
						</g>
						<path d="M1222.249,968.775c14.825-3.429-1.435,15.175,51.238-10.451c20.976-10.205,14.097,17.396,19.546,14.763
							c20.121-9.723,25.641-12.166,36.409-11.228c7.13,0.621,23.835,11.631,23.104,21.224c-2.383,31.301-17.062,25.648-21.78,53.403
							c-3.313,19.492-7.551,25.98-14.491,29.931c-7.017,3.995-14.197-5.066-22.188-1.28c-10.341,4.899-5.079,23.279-14.344,32.867
							c-5.84,6.044-20.953,10.976-47.787,3.172c-4.348-1.265-7.175-5.473-6.705-10.002c0.603-5.803,1.403-13.13,2.753-20.069
							c6.432-33.071,16.345-41.999,10.99-49.361c-8.206-11.281-30.404-0.199-35.96-9.668
							C1197.263,1002.242,1201.951,973.471,1222.249,968.775z"/>
						<g>
							<path style="fill:#FFFFFF;" d="M1283.391,1013.341l-2.955,8.717c-1.392,4.106-2.499,8.297-3.314,12.554
								c-1.529,7.984-4.689,21.588-6.375,29.258c-5.422,24.661-38.057,4.182-38.057,4.182l-3.035-6.013l-4.079-0.9
								c-0.789-0.174-1.548-0.511-2.144-1.058c-1.488-1.366-1.842-3.455-1.054-5.174c4.308-9.399,13.073-30.349,14.529-48.054
								C1236.907,1006.853,1260.251,996.384,1283.391,1013.341z"/>
							<path d="M1256.3,1078.218c-11.386,0-24.129-7.896-24.78-8.305c-0.339-0.212-0.614-0.514-0.794-0.871l-2.564-5.082
								l-3.062-0.675c-1.23-0.271-2.322-0.82-3.155-1.585c-2.146-1.971-2.777-5.069-1.567-7.708
								c3.828-8.35,12.889-29.676,14.337-47.32c0.067-0.798,0.56-1.497,1.292-1.825c1.002-0.448,24.784-10.791,48.681,6.72
								c0.775,0.566,1.09,1.57,0.783,2.479l-2.955,8.717c-1.354,3.992-2.442,8.117-3.236,12.262
								c-1.118,5.831-3.125,14.751-4.736,21.919c-0.618,2.752-1.191,5.297-1.652,7.397c-1.384,6.298-4.543,10.522-9.384,12.552
								C1261.268,1077.832,1258.818,1078.218,1256.3,1078.218z M1234.364,1066.496c2.968,1.749,18.174,10.242,27.449,6.342
								c3.494-1.467,5.713-4.555,6.788-9.441c0.464-2.105,1.036-4.657,1.657-7.417c1.605-7.137,3.603-16.021,4.706-21.782
								c0.833-4.344,1.972-8.665,3.391-12.848l2.429-7.167c-18.565-12.742-37.068-7.474-41.812-5.777
								c-1.758,17.354-9.848,37.057-14.597,47.415c-0.414,0.901-0.195,1.963,0.543,2.641c0.262,0.241,0.655,0.425,1.131,0.53
								l4.08,0.9c0.644,0.143,1.191,0.567,1.487,1.156L1234.364,1066.496z"/>
						</g>
						<path style="fill:#FFFFFF;" d="M1281.977,1042.242c0,0,7.078-20.968,15.884-15.749
							C1306.667,1031.713,1298.297,1054.601,1281.977,1042.242z"/>
					</g>
				</g>
			</g>
			<g>
				<g>
					<g>
						<g>
							<polygon style="fill:#FFFFFF;" points="560.882,2029.247 547.828,2092.474 582.004,2102.237 600.903,2040.68 							"/>
							<path d="M582.003,2104.435c-0.2,0-0.401-0.027-0.603-0.085l-34.175-9.764c-1.107-0.315-1.781-1.43-1.549-2.557l13.054-63.227
								c0.124-0.599,0.491-1.119,1.015-1.436c0.521-0.315,1.154-0.402,1.74-0.233l40.02,11.434c0.569,0.162,1.047,0.545,1.328,1.064
								c0.281,0.518,0.343,1.129,0.17,1.693l-18.9,61.557C583.814,2103.827,582.945,2104.435,582.003,2104.435z M550.393,2090.921
								l30.142,8.612l17.61-57.355l-35.589-10.168L550.393,2090.921z"/>
						</g>
						<g>
							<g>
								<path style="fill:#FFFFFF;" d="M536.524,2145.76c0.386,6.084,7.76,10.964,13.719,11.873
									c20.727,3.163,69.447,1.826,82.679,2.75c17.173,1.198,49.427-0.092,50.676-11.148c1.524-13.488-12.876-33.152-47.334-43.925
									c-17.82-5.572-36.67-33.18-45.01-33.672c-8.341-0.492-23.104,21.312-23.104,21.312l-23.748-8.153
									C544.403,2084.797,534.566,2114.905,536.524,2145.76z"/>
								<path d="M644.309,2162.925c-6.296,0-10.93-0.307-11.539-0.35c-4.504-0.314-13.387-0.364-23.674-0.422
									c-20.254-0.113-45.463-0.254-59.184-2.348c-7.14-1.089-15.125-6.716-15.582-13.906c-1.961-30.921,7.577-60.54,7.985-61.786
									c0.182-0.559,0.582-1.023,1.107-1.284c0.528-0.264,1.133-0.304,1.693-0.112l22.172,7.612
									c4.013-5.712,15.818-21.377,24.095-20.885c4.537,0.267,10.108,5.652,17.82,13.105c8.174,7.9,18.346,17.733,27.717,20.662
									c35.894,11.222,50.491,31.852,48.862,46.27C684.465,2161.131,659.528,2162.925,644.309,2162.925z M538.716,2145.621
									c0.294,4.642,6.502,9.023,11.857,9.839c13.406,2.046,38.437,2.186,58.549,2.298c10.361,0.058,19.312,0.108,23.953,0.433
									c22.657,1.574,47.497-1.74,48.338-9.203c1.479-13.084-13.779-31.568-45.806-41.58c-10.363-3.241-20.951-13.475-29.46-21.697
									c-5.955-5.757-12.112-11.707-15.022-11.88c-0.058-0.003-0.118-0.004-0.176-0.004c-4.961,0-15.208,11.833-20.979,20.354
									c-0.558,0.822-1.599,1.168-2.532,0.847l-21.591-7.412C543.71,2094.975,537.105,2120.203,538.716,2145.621z"/>
							</g>
							<path d="M652.678,2146.437c-4.554,0-9.537-0.262-14.816-0.54c-7.805-0.41-15.878-0.834-23.797-0.47
								c-18.073,0.833-33.546,0.113-43.338-0.639c-18.376-1.408-19.086-2.536-19.511-3.21c-0.423-0.669-0.455-1.527-0.082-2.224
								c0.569-1.06,1.876-1.466,2.944-0.917c3.097,0.771,28.546,4.039,59.785,2.601c8.142-0.371,16.32,0.057,24.23,0.472
								c11.897,0.625,23.138,1.217,29.557-1.541c1.105-0.481,2.406,0.034,2.886,1.15c0.479,1.115-0.036,2.408-1.152,2.886
								C665.024,2145.882,659.309,2146.437,652.678,2146.437z"/>
							<path d="M608.452,2124.751c-0.552,0-1.103-0.206-1.528-0.619c-0.873-0.844-0.895-2.235-0.051-3.107l12.509-12.917
								c0.846-0.875,2.24-0.892,3.107-0.05c0.873,0.844,0.895,2.235,0.052,3.107l-12.509,12.917
								C609.6,2124.528,609.025,2124.751,608.452,2124.751z"/>
						</g>
					</g>
					<g>
						<g>
							<polygon style="fill:#FFFFFF;" points="375.517,2026.239 373.778,2070.339 404.286,2077.774 409.721,2026.551 							"/>
							<path d="M404.286,2079.972c-0.174,0-0.348-0.02-0.519-0.062l-30.509-7.436c-1.017-0.248-1.717-1.177-1.676-2.222l1.74-44.1
								c0.045-1.179,1.017-2.111,2.195-2.111c0.006,0,0.013,0,0.019,0l34.205,0.312c0.62,0.005,1.208,0.272,1.62,0.735
								c0.414,0.462,0.612,1.078,0.545,1.694l-5.436,51.224c-0.066,0.63-0.401,1.2-0.921,1.565
								C405.177,2079.835,404.735,2079.972,404.286,2079.972z M376.043,2068.63l26.322,6.415l4.917-46.319l-29.653-0.27
								L376.043,2068.63z"/>
						</g>
						<g>
							<g>
								<path style="fill:#FFFFFF;" d="M408.941,2157.958c-12.226,1.74-32.181,2.479-55.812-0.024
									c-10.595-1.122-14.726-15.985-12.866-23.635c5.182-21.312,14.191-55.672,29.516-74.405l5.628,11.438l5.313-11.155
									c0.72-1.31,2.014-2.196,3.484-2.384l11.462,0.111c2.406-0.308,4.643,1.303,5.142,3.704l1.833,8.815l9.78-11.381l7.634,84.06
									C420.993,2150.301,416.047,2156.947,408.941,2157.958z"/>
								<path d="M382.852,2161.757c-8.41,0-18.464-0.42-29.956-1.637c-4.202-0.445-7.886-2.758-10.65-6.687
									c-4.341-6.167-5.358-14.555-4.118-19.653c6.23-25.617,15.264-57.323,29.949-75.278c0.474-0.578,1.212-0.875,1.953-0.792
									c0.742,0.086,1.391,0.543,1.721,1.214l3.624,7.366l3.363-7.057c1.109-2.031,3.028-3.342,5.187-3.618
									c0.099-0.013,0.202-0.023,0.3-0.018l11.329,0.109c3.401-0.356,6.691,2.009,7.406,5.455l0.925,4.444l6.869-7.995
									c0.577-0.669,1.491-0.927,2.337-0.661c0.841,0.269,1.44,1.015,1.519,1.895l7.633,84.06
									c1.082,8.288-4.743,16.055-12.994,17.23C404.874,2160.757,395.818,2161.757,382.852,2161.757z M408.941,2157.959h0.021
									H408.941z M369.365,2064.03c-14.642,20.111-23.211,55.345-26.966,70.789c-0.996,4.09,0.019,11.224,3.44,16.085
									c2.045,2.902,4.575,4.532,7.522,4.844c19.925,2.111,40.589,2.122,55.272,0.034c5.878-0.837,10.026-6.397,9.245-12.395
									l-7.174-78.973l-6.393,7.441c-0.547,0.634-1.404,0.904-2.217,0.695c-0.811-0.209-1.431-0.861-1.603-1.68l-1.833-8.815
									c-0.268-1.289-1.457-2.125-2.71-1.972c-0.099,0.012-0.204,0.016-0.3,0.018l-11.288-0.109
									c-0.719,0.131-1.352,0.588-1.71,1.242l-5.258,11.042c-0.361,0.761-1.127,1.247-1.968,1.252c-0.006,0-0.011,0-0.015,0
									c-0.837,0-1.601-0.475-1.972-1.228L369.365,2064.03z"/>
							</g>
							<path d="M374.951,2147.955c-7.858,0-16.361-0.704-24.837-2.658c-1.182-0.272-1.921-1.453-1.648-2.635
								c0.272-1.182,1.457-1.912,2.635-1.648c28.593,6.592,58.57-1.887,58.873-1.973c1.172-0.334,2.384,0.337,2.721,1.502
								c0.337,1.165-0.335,2.383-1.502,2.72C410.288,2143.524,394.653,2147.955,374.951,2147.955z"/>
							<path d="M367.95,2115.315c-1.178,0-2.155-0.936-2.193-2.124c-0.041-1.213,0.91-2.229,2.122-2.27l27.499-0.918
								c1.131-0.029,2.23,0.909,2.268,2.124c0.041,1.212-0.91,2.229-2.122,2.269l-27.499,0.918
								C368.002,2115.315,367.976,2115.315,367.95,2115.315z"/>
						</g>
					</g>
					<path d="M697.672,1498.044c11.571,68.341,32.61,236.29-12.812,361.918c-39.09,108.116-66.992,161.961-77.717,181.511
						c-2.932,5.344-8.782,8.326-14.775,7.547l-27.862-3.621c-8.259-1.073-14.007-8.83-12.692-17.149
						c10.165-64.329,50.543-377.439,39.787-406.38L418.56,2032.294c-1.868,4.354-6.134,7.151-10.826,7.099l-29.231-0.329
						c-6.511-0.073-11.702-5.542-11.531-12.126c8.632-332.196,105.022-385.648,133.264-544.473
						c0.066-0.374,9.248,10.791,9.592,10.993c28.277,16.529,42.428,15.243,85.813,17.634c46.925,2.587,90.516-15.279,100.79-14.798
						C697.216,1496.33,697.538,1497.253,697.672,1498.044z"/>
				</g>
				<g>
					<g>
						<path style="fill:#FFFFFF;" d="M744.898,1460.511c-16.722,1.888,1.392-41.764,1.392-41.764l66.414-3.397l50.27-13.866
							c5.165-1.425,10.519,1.562,12.029,6.71c1.542,5.257-1.508,10.759-6.779,12.228l-22.45,6.257
							c-3.116,0.868-4.239,4.708-2.084,7.125c3.336,3.742,7.311,6.845,11.76,9.151c8.083,4.189,22.257,11.076,37.097,16.141
							c6.964,2.377,8.254,11.185,1.306,13.599l-47.75-2.044c-12.101-0.518-27.219-9.464-35.31-18.492
							C810.792,1452.158,773.669,1457.262,744.898,1460.511z"/>
						<path d="M893.852,1474.891c-0.032,0-0.062-0.001-0.094-0.002l-47.75-2.044c-12.826-0.548-27.872-9.703-36.055-18.354
							c-6.468,0.882-39.149,5.306-64.808,8.204c-4.011,0.451-6.225-1.283-7.38-2.819c-6.841-9.094,5.112-38.633,6.496-41.971
							c0.326-0.783,1.071-1.309,1.919-1.352l66.173-3.385l50.038-13.802c6.273-1.733,12.887,1.95,14.723,8.208
							c0.912,3.115,0.547,6.392-1.028,9.228c-1.571,2.829-4.155,4.867-7.271,5.736l-22.451,6.258
							c-1.047,0.291-1.397,1.132-1.498,1.48c-0.103,0.349-0.264,1.25,0.464,2.065c3.182,3.57,6.927,6.483,11.131,8.662
							c7.294,3.779,21.773,10.885,36.797,16.013c4.416,1.506,7.391,5.371,7.401,9.617c0.011,3.711-2.322,6.828-6.086,8.136
							C894.341,1474.85,894.096,1474.891,893.852,1474.891z M810.792,1449.96c0.62,0,1.217,0.263,1.637,0.731
							c7.474,8.341,22.149,17.266,33.767,17.763l47.302,2.025c1.792-0.741,2.771-2.09,2.766-3.834
							c-0.004-1.972-1.376-4.428-4.427-5.47c-14.526-4.958-28.355-11.584-37.398-16.271c-4.682-2.425-8.85-5.669-12.389-9.639
							c-1.522-1.706-2.045-4.035-1.401-6.229c0.642-2.19,2.337-3.863,4.534-4.475l22.451-6.258c1.977-0.551,3.612-1.842,4.61-3.636
							c1-1.799,1.23-3.88,0.65-5.856c-1.163-3.969-5.339-6.308-9.337-5.209l-50.269,13.866c-0.155,0.043-0.311,0.069-0.472,0.076
							l-65.019,3.326c-4.764,11.877-10.402,31.203-6.519,36.364c0.476,0.633,1.305,1.329,3.373,1.093
							c28.415-3.209,65.471-8.295,65.843-8.347C810.592,1449.967,810.693,1449.96,810.792,1449.96z M744.897,1460.511h0.021H744.897
							z"/>
					</g>
					<g>
						<path style="fill:#FFFFFF;" d="M522.199,1165.647l4.575,155.352l128.377,6.486c0,0,83.04-124.416,24.065-166.032
							C631.632,1143.975,561.83,1145.391,522.199,1165.647z"/>
						<path d="M655.153,1329.682c-0.036,0-0.073-0.001-0.112-0.003l-128.379-6.486c-1.144-0.057-2.052-0.985-2.086-2.13
							l-4.575-155.351c-0.024-0.848,0.442-1.635,1.198-2.021c39.977-20.432,109.717-22.32,158.776-4.299
							c0.18,0.065,0.352,0.156,0.509,0.267c60.034,42.363-20.065,163.895-23.503,169.047
							C656.571,1329.318,655.885,1329.682,655.153,1329.682z M528.911,1318.906l125.089,6.32
							c7.732-12.006,77.502-123.712,24.185-161.811c-46.735-17.062-115.22-15.419-153.748,3.568L528.911,1318.906z"/>
					</g>
					<g>
						<g>
							<path style="fill:#FFFFFF;" d="M565.396,1151.477c-1.326-0.547-1.18-2.527,0.208-2.872
								c4.757-1.183,11.582-3.104,12.042-4.489c7.724-23.285,11.765-41.968,15.08-66.351l0.179-1.318
								c-2.212-54.783,25.188-77.653,51.633-73.74c37.555,5.557,33.855,27.838,33.855,27.838c0.43,6.578,1.438,21.915,3.195,24.364
								c2.157,3.005,8.295,7.673,8.829,9.618c0.535,1.945-1.971,6.445-7.881,8.758c0,0,1.915,31.977-5.382,38.3
								c-7.297,6.324-39.394,0.756-39.394,0.756l-0.807,38.04l14.444,6.961c1.738,0.837,1.301,3.506-0.607,3.707l-18.943,1.998
								c-15.373,1.867-30.94,0.747-45.9-3.293C584.714,1159.42,572.206,1154.285,565.396,1151.477z"/>
							<path d="M617.287,1166.129c-10.734,0-21.421-1.421-31.913-4.254c-1.028-0.278-8.03-3.092-20.816-8.367
								c-1.474-0.608-2.384-2.098-2.266-3.706c0.118-1.607,1.236-2.945,2.783-3.329c7.816-1.944,10.043-3.074,10.614-3.44
								c7.262-21.961,11.436-40.384,14.859-65.564l0.152-1.125c-1.144-29.249,6.198-52.517,20.683-65.535
								c9.38-8.433,21.26-12.085,33.477-10.275c15.076,2.231,25.632,7.358,31.374,15.24c4.964,6.811,4.536,13.389,4.365,14.845
								c1.125,17.145,2.135,21.987,2.785,23.024c0.837,1.166,2.528,2.775,4.163,4.331c2.895,2.753,4.554,4.388,4.987,5.971
								c0.863,3.136-2.034,7.968-7.725,10.742c0.324,7.07,0.959,32.343-6.215,38.561c-6.85,5.932-30.488,2.928-38.692,1.668
								l-0.723,34.1l13.172,6.348c1.68,0.812,2.592,2.607,2.268,4.469c-0.32,1.841-1.766,3.209-3.599,3.403l-18.947,1.997
								C627.148,1165.83,622.212,1166.129,617.287,1166.129z M568.133,1150.228c12.494,5.146,17.711,7.209,18.395,7.407
								c14.749,3.983,29.911,5.07,45.051,3.23l18.105-1.909l-13.687-6.596c-0.775-0.373-1.26-1.165-1.242-2.026l0.807-38.04
								c0.015-0.641,0.307-1.242,0.8-1.65c0.496-0.407,1.144-0.579,1.773-0.469c12.013,2.083,32.842,3.855,37.58-0.251
								c4.719-4.089,5.341-24.564,4.627-36.508c-0.058-0.952,0.504-1.832,1.393-2.178c5.12-2.004,6.631-5.468,6.554-6.172
								c-0.275-0.585-2.378-2.586-3.771-3.91c-1.783-1.695-3.625-3.449-4.715-4.966c-1.534-2.14-2.545-9.29-3.603-25.503
								c-0.011-0.167-0.002-0.337,0.026-0.502c0.034-0.225,0.841-5.883-3.618-11.926c-5.045-6.836-14.597-11.337-28.391-13.378
								c-10.886-1.618-21.505,1.656-29.896,9.197c-13.526,12.155-20.35,34.273-19.222,62.28c0.007,0.129,0,0.256-0.017,0.383
								l-0.178,1.318c-3.485,25.623-7.738,44.337-15.172,66.748C579.258,1146.235,578.02,1147.643,568.133,1150.228z
								 M566.236,1149.445L566.236,1149.445L566.236,1149.445z"/>
						</g>
						<path d="M622.62,1066.206c0.621-0.327,0.99-3.61,0.969-5.027c-0.193-12.509-9.308-14.584-8.256-19.682
							c0.576-2.791,2.035-3.628,3.377-4.619c6.665-4.926,15.386-1.853,32.908,1.642c21.756,4.34,25.889,7.054,28.355,3.366
							c17.309-25.888-5.463-71.2-27.234-56.015c-0.797,0.556-1.885,0.097-2.228-0.834c-1.06-2.872-2.931-6.182-6.321-7.988
							c-9.812-5.225-24.539,6.307-29.694,10.344c-4.589,3.593-12.639,10.949-18.702,23.778c-0.379,0.802-1.295,1.151-2.072,0.76
							c-2.977-1.499-6.748-14.218-13.579-4.629c-9.655,13.553-5.972,43.673,2.983,60.72c4.618,8.79,9.075,12.899,13.384,15.823
							c0.48,0.326,1.099,0.361,1.603,0.078c0.52-0.292,1.094-0.615,1.684-0.947c3.073-1.726,4.117-5.759,2.287-8.836
							c-1.849-3.112-3.114-6.582-3.502-10.211c-0.316-2.956,1.63-5.959,3.484-7.547c2.956-2.531,6.234-0.945,6.953-0.7
							c5.731,1.954,8.101,7.735,8.977,10.809c0.277,0.971,1.328,1.451,2.201,0.99L622.62,1066.206z"/>
						<g>
							<g>
								<path style="fill:#FFFFFF;" d="M677.374,1003.404l51.63,2.754c9.449,0.504,14.393,14.017,8.368,23.54
									c-4.098,6.477-13.018,12.25-31.125,14.033c-47.714,4.698-77.025,3.959-77.025,3.959L677.374,1003.404z"/>
								<path d="M633.875,1049.926c-3.024,0-4.64-0.037-4.708-0.04c-0.895-0.022-1.687-0.586-2.002-1.424
									c-0.313-0.838-0.088-1.783,0.571-2.39l48.151-44.286c0.434-0.4,0.994-0.606,1.605-0.577l51.63,2.754
									c4.597,0.246,8.603,3.037,10.987,7.658c3.086,5.973,2.738,13.53-0.882,19.251c-5.288,8.363-16.314,13.425-32.767,15.044
									C670.018,1049.506,644.024,1049.926,633.875,1049.926z M678.181,1005.647l-43.364,39.883
									c10.631-0.026,35.997-0.518,71.214-3.986c15.035-1.48,24.956-5.861,29.484-13.021c2.803-4.428,3.073-10.272,0.691-14.886
									c-1.652-3.199-4.32-5.126-7.32-5.286L678.181,1005.647z"/>
							</g>
							<g>
								<path style="fill:#FFFFFF;" d="M579.08,1053.783c0,0-31.219-54.125,13.965-75.398c58.454-27.52,80.354,5.714,88.053,26.62
									c3.048,8.277,1.089,17.172-5.26,23.307l-0.194,0.188c-10.982,10.613-25.805,17.378-42.052,19.193L579.08,1053.783z"/>
								<path d="M579.08,1055.981c-0.779,0-1.509-0.414-1.903-1.1c-0.67-1.162-16.331-28.742-8.751-52.921
									c3.517-11.22,11.487-19.821,23.685-25.564c23.917-11.262,44.269-13.608,60.476-6.964
									c17.281,7.083,26.166,22.841,30.576,34.813c3.358,9.122,1.137,18.948-5.798,25.647l-0.187,0.182
									c-11.29,10.91-26.681,17.94-43.34,19.802l-54.512,6.09C579.243,1055.976,579.159,1055.981,579.08,1055.981z
									 M632.901,970.141c-11.423,0-24.443,3.416-38.919,10.232c-11.035,5.195-18.219,12.895-21.357,22.886
									c-6.146,19.572,4.792,42.614,7.685,48.176l53.038-5.925c15.7-1.754,30.179-8.356,40.769-18.591l0.189-0.182
									c5.668-5.475,7.479-13.51,4.732-20.971c-4.105-11.144-12.314-25.788-28.119-32.266
									C645.453,971.259,639.438,970.141,632.901,970.141z"/>
							</g>
							<path d="M575.786,1054.275l14.062-1.695c-0.056-1.391-0.174-5.979-0.406-7.594c-3.4-23.667-14.318-22.739-20.87-20.191
								C570.219,1039.737,575.786,1054.275,575.786,1054.275z"/>
						</g>
					</g>
					<g>
						<polygon points="622.571,1201.708 646.097,1311.513 588.806,1311.144 607.66,1202.084 593.861,1179.367 609.193,1163.791 
							620.525,1163.444 634.363,1179.712 						"/>
						<g>
							<path style="fill:#FFFFFF;" d="M574.518,1204.936c-10.938-18.459-19.973-42.328-8.201-57.543l15.558-19.598
								c0,0,9.686,28.238,31.29,34.793L574.518,1204.936z"/>
							<path d="M574.518,1207.133c-0.075,0-0.15-0.004-0.225-0.012c-0.693-0.071-1.311-0.467-1.665-1.065
								c-10.779-18.19-20.923-43.367-8.047-60.008l15.573-19.62c0.498-0.628,1.292-0.937,2.092-0.799
								c0.792,0.135,1.446,0.692,1.706,1.451c0.094,0.273,9.597,27.258,29.85,33.404c0.723,0.219,1.281,0.793,1.481,1.52
								c0.202,0.727,0.013,1.506-0.496,2.064l-38.647,42.349C575.722,1206.876,575.131,1207.133,574.518,1207.133z
								 M581.232,1132.139l-13.193,16.62c-11.245,14.535-1.223,38.138,6.878,52.48l34.402-37.697
								C593.441,1156.963,584.503,1139.723,581.232,1132.139z"/>
						</g>
						<g>
							<path style="fill:#FFFFFF;" d="M618.543,1162.563c15.104-6.647,17.841-31.166,17.841-31.166s16.346,13.207,19.11,31.575
								c4.062,26.992-7.971,44.375-7.971,44.375L618.543,1162.563z"/>
							<path d="M647.524,1209.544c-0.011,0-0.024,0-0.034,0c-0.734-0.012-1.412-0.388-1.811-1.003l-28.981-44.784
								c-0.35-0.541-0.444-1.208-0.26-1.824c0.185-0.617,0.631-1.122,1.221-1.381c13.784-6.068,16.515-29.167,16.541-29.399
								c0.09-0.798,0.607-1.484,1.35-1.789c0.74-0.305,1.59-0.18,2.217,0.323c0.693,0.561,17.043,13.963,19.902,32.957
								c4.144,27.537-7.826,45.215-8.337,45.954C648.921,1209.191,648.245,1209.544,647.524,1209.544z M621.706,1163.406
								l25.704,39.722c3.043-5.929,8.844-20.348,5.91-39.829c-1.903-12.66-10.771-22.911-15.434-27.535
								C636.446,1142.863,632.315,1157.16,621.706,1163.406z"/>
						</g>
					</g>
					<g>
						<path style="fill:#FFFFFF;" d="M542.268,1149.321c0,0-46.99,9.444-72.858,45.822c-23.273,32.728-26.144,67.311-21.578,90.643
							c10.444,53.372,43.117,100.399,42.799,105.032c-3.555,51.894-19.844,117.764-14.477,136.253
							c5.918,20.385,107.9,19.152,107.9,19.152l27.232-38.545l31.186,43.62c0,0,67.799-8.631,69.036-16.397
							c2.975-18.662-16.447-96.584-12.142-138.551c3.805-37.095,17.269-82.744,17.269-82.744
							c59.992,34.322,122.3,29.92,178.991-10.281c66.838-47.397,117.566-152.82,117.566-152.82l-36.896-21.361
							c0,0-79.581,91.627-146.408,98.791c-39.807,4.267-74.271-19.018-94.373-36.896c-20.279-18.035-66.467-33.336-66.467-33.336
							c-2.335,59.94-20.96,97.742-37.809,141.783c0,0-46.032-31.306-65.653-72.827
							C551.031,1195.86,542.268,1149.321,542.268,1149.321z"/>
						<path d="M642.472,1553.496c-0.704,0-1.371-0.338-1.788-0.92l-29.387-41.105l-25.449,36.02
							c-0.406,0.575-1.062,0.921-1.768,0.929c-10.595,0.12-103.833,0.635-110.037-20.737c-3.223-11.103,0.878-37.566,5.627-68.208
							c3.406-21.964,7.264-46.858,8.766-68.809c-0.163-1.058-3.034-6.363-6.075-11.98c-10.176-18.801-29.117-53.795-36.685-92.481
							c-2.837-14.495-6.378-52.51,21.943-92.338c26.074-36.665,72.264-46.309,74.216-46.702c0.579-0.114,1.176,0.004,1.661,0.333
							c0.487,0.328,0.824,0.838,0.931,1.415c0.088,0.462,8.88,46.62,23.146,76.806c16.67,35.277,53.175,63.438,62.63,70.331
							c2.114-5.472,4.249-10.856,6.371-16.209c14.55-36.689,28.292-71.343,30.277-122.225c0.026-0.69,0.376-1.327,0.944-1.72
							c0.566-0.393,1.29-0.497,1.942-0.28c1.904,0.631,46.853,15.652,67.236,33.78c21.189,18.846,54.48,40.447,92.68,36.353
							c65.212-6.991,144.192-97.137,144.982-98.046c0.691-0.797,1.854-0.987,2.76-0.46l36.896,21.361
							c0.994,0.575,1.378,1.819,0.88,2.854c-0.511,1.059-51.744,106.48-118.275,153.659
							c-57.501,40.777-119.308,44.825-178.914,11.77c-2.897,10.271-13.211,48.303-16.43,79.687
							c-2.449,23.866,2.974,60.228,7.333,89.444c3.414,22.889,6.109,40.968,4.792,49.23c-0.356,2.233-1.019,6.39-36.756,12.925
							c-16.966,3.103-34.001,5.282-34.172,5.305C642.657,1553.49,642.564,1553.496,642.472,1553.496z M611.287,1505.481
							c0.708,0,1.376,0.342,1.788,0.919l30.421,42.552c30.177-3.908,63.604-10.51,65.892-14.56
							c1.161-7.427-1.624-26.101-4.85-47.724c-4.393-29.46-9.863-66.124-7.359-90.541c3.783-36.87,17.213-82.682,17.348-83.14
							c0.189-0.645,0.665-1.167,1.288-1.417c0.622-0.252,1.328-0.203,1.91,0.131c58.772,33.622,119.846,30.101,176.631-10.167
							c60.817-43.127,108.852-135.973,115.953-150.156l-33.555-19.426c-10.58,11.901-83.397,91.392-146.632,98.17
							c-39.81,4.275-74.216-18.005-96.069-37.439c-16.891-15.021-52.735-28.339-62.939-31.938
							c-2.416,50.025-16.043,84.383-30.454,120.721c-2.457,6.197-4.934,12.437-7.371,18.808c-0.238,0.627-0.753,1.111-1.393,1.311
							c-0.644,0.202-1.339,0.099-1.895-0.28c-0.466-0.316-46.754-32.123-66.403-73.705c-12.681-26.832-21.073-65.89-23.044-75.617
							c-9.406,2.371-47.42,13.587-69.354,44.434c-28.104,39.518-23.342,78.072-21.213,88.947
							c7.44,38.027,26.172,72.638,36.237,91.232c5.112,9.446,6.723,12.522,6.597,14.374c-1.517,22.137-5.391,47.13-8.809,69.18
							c-4.474,28.872-8.702,56.143-5.751,66.31c3.934,13.55,65.757,17.955,104.646,17.579l26.584-37.627
							c0.41-0.581,1.077-0.927,1.788-0.929C611.282,1505.481,611.285,1505.481,611.287,1505.481z"/>
					</g>
					<path style="fill:#FFFFFF;" d="M544.601,1188.326c0,0-41.006,17.407-62.657,88.271c-11.95,39.111-9.761,94.882,49.171,169.02
						c11.787,14.828,28.341,29.578,47.032,31.708l179.105-8.437l-0.796-57.849c0,0-138.898-8.017-159.774-15.937
						c-18.49-7.015-45.269-98.361-48.056-143.181L544.601,1188.326z"/>
					<path d="M578.146,1479.522c-0.084,0-0.165-0.004-0.249-0.014c-20.589-2.347-37.739-18.982-48.503-32.524
						c-6.352-7.994-12.481-16.094-18.215-24.075c-0.708-0.986-0.483-2.358,0.504-3.067c0.981-0.709,2.358-0.484,3.067,0.502
						c5.691,7.924,11.775,15.966,18.086,23.905c10.215,12.852,26.37,28.62,45.385,30.871l176.803-8.328l-0.738-53.68
						c-17.938-1.062-138.576-8.443-158.382-15.956c-16.816-6.379-36.595-69.974-44.671-110.946
						c-0.234-1.191,0.541-2.347,1.732-2.581c1.185-0.241,2.346,0.539,2.582,1.731c9.245,46.921,28.735,102.686,41.915,107.686
						c20.324,7.71,157.733,15.718,159.12,15.798c1.15,0.066,2.056,1.012,2.071,2.164l0.796,57.85c0.017,1.185-0.91,2.17-2.095,2.225
						l-179.105,8.436C578.215,1479.521,578.181,1479.522,578.146,1479.522z"/>
				</g>
				<g>
					<g>
						<polygon style="fill:#FFFFFF;" points="1068.269,1188.513 905.758,1283.011 743.387,1188.394 907.602,1092.755 						"/>
						<path d="M905.758,1285.208c-0.382,0-0.764-0.1-1.107-0.299l-162.371-94.616c-0.674-0.394-1.09-1.117-1.09-1.899
							s0.416-1.505,1.092-1.899l164.214-95.639c0.689-0.4,1.545-0.398,2.23,0.012l160.669,95.758
							c0.669,0.398,1.077,1.121,1.073,1.899c-0.004,0.779-0.421,1.497-1.092,1.887l-162.513,94.498
							C906.521,1285.109,906.14,1285.208,905.758,1285.208z M747.752,1188.394l158.008,92.074l158.18-91.979l-156.351-93.184
							L747.752,1188.394z"/>
					</g>
					<g>
						<polygon style="fill:#FFFFFF;" points="905.79,1474.352 905.79,1282.224 1068.938,1188.179 1068.938,1378.106 						"/>
						<path d="M905.79,1476.549c-0.376,0-0.751-0.097-1.09-0.29c-0.685-0.391-1.107-1.119-1.107-1.908v-192.127
							c0-0.785,0.418-1.512,1.101-1.904l163.148-94.045c0.678-0.393,1.517-0.392,2.195,0.001c0.68,0.393,1.099,1.118,1.099,1.902
							v189.927c0,0.778-0.412,1.498-1.082,1.893l-163.148,96.245C906.562,1476.447,906.176,1476.549,905.79,1476.549z
							 M907.987,1283.494v187.01l158.753-93.653v-184.869L907.987,1283.494z"/>
					</g>
					<g>
						<polygon style="fill:#FFFFFF;" points="905.79,1474.352 905.79,1282.224 744.056,1188.059 744.056,1378.573 						"/>
						<path d="M905.79,1476.549c-0.388,0-0.775-0.102-1.12-0.307l-161.734-95.778c-0.667-0.396-1.077-1.114-1.077-1.891v-190.514
							c0-0.786,0.421-1.513,1.103-1.905c0.682-0.392,1.522-0.389,2.2,0.005l161.734,94.165c0.676,0.394,1.092,1.117,1.092,1.899
							v192.127c0,0.79-0.423,1.518-1.109,1.909C906.541,1476.453,906.165,1476.549,905.79,1476.549z M746.254,1377.321
							l157.339,93.175v-187.009l-157.339-91.606V1377.321z"/>
					</g>
				</g>
				<g>
					<path style="fill:#FFFFFF;" d="M1335.818,1330.663c0,0-68.709,57.333-146.048,47.54c-41.298-5.23-62.646-18.408-86.785-29.952
						c-18.726-8.955-28.659-21.239-35.58-30.196c-3.87-5.008-10.027-12.134-15.865-15.155c-1.718-0.889-3.537-1.274-5.175-1.339
						c-13.761-0.549,3.957,23.965,3.957,23.965c0.816,2.683-1.21,5.386-4.014,5.357l-8.652-0.09
						c-5.308-0.729-10.453-2.593-17.022-7.795l-12.974-12.039c-3.75-2.549-8.964-2.15-11.906,1.299
						c-1.245,1.46-2.675,6.088-2.79,8.145c-0.446,7.964-7.103,33.983,23.178,48.874c23.052,11.337,41.971,1.447,51.504,3.99
						c6.95,1.853,80.216,69.365,170.667,72.897c136.233,5.319,189.638-69.954,189.638-69.954L1335.818,1330.663z"/>
					<path d="M1251.79,1448.625c-4.431,0.001-8.944-0.086-13.563-0.267c-74.392-2.904-137.696-49.013-161.525-66.371
						c-4.434-3.23-8.62-6.279-9.635-6.601c-2.8-0.749-7.011-0.193-11.886,0.451c-10.211,1.348-24.187,3.192-40.01-4.588
						c-28.479-14.007-25.823-37.836-24.687-48.011c0.129-1.157,0.242-2.153,0.288-2.959c0.129-2.349,1.665-7.517,3.311-9.448
						c3.62-4.243,9.987-4.97,14.814-1.691c0.09,0.062,0.178,0.132,0.26,0.207l12.975,12.039c6.725,5.318,11.713,6.649,15.689,7.209
						l8.513,0.089c0.607,0.019,1.204-0.278,1.582-0.781c0.318-0.423,0.446-0.937,0.371-1.448
						c-2.56-3.597-11.998-17.595-8.577-23.971c0.811-1.514,2.635-3.292,6.747-3.12c2.152,0.086,4.26,0.633,6.097,1.583
						c6.08,3.147,12.38,10.309,16.593,15.764c5.923,7.664,15.833,20.491,34.791,29.557c3.502,1.675,6.944,3.384,10.399,5.098
						c20.037,9.946,40.759,20.23,75.714,24.656c5.932,0.751,11.822,1.098,17.636,1.098c68.177,0.003,126.102-47.621,126.728-48.144
						c0.672-0.559,1.605-0.666,2.382-0.283l92.131,45.545c0.575,0.285,0.998,0.808,1.157,1.432c0.157,0.623,0.034,1.284-0.339,1.809
						C1429.221,1378.216,1377.75,1448.621,1251.79,1448.625z M1063.725,1370.635c1.62,0,3.12,0.143,4.487,0.508
						c1.616,0.431,4.393,2.424,11.075,7.292c23.537,17.143,86.054,62.68,159.111,65.533c120.694,4.685,176.3-55.064,186.15-66.99
						l-88.448-43.724c-9.298,7.321-74.585,56.244-146.606,47.13c-35.69-4.521-56.75-14.971-77.116-25.08
						c-3.434-1.704-6.859-3.404-10.342-5.069c-18.361-8.781-28.402-20.521-36.37-30.835c-3.944-5.103-9.771-11.771-15.138-14.548
						c-1.601-0.828-3.195-1.053-4.251-1.096c-0.996-0.032-2.298,0.068-2.698,0.808c-1.498,2.79,3.258,12.384,8.522,19.675
						c0.142,0.196,0.251,0.415,0.322,0.647c0.594,1.956,0.232,4.016-0.994,5.652c-1.212,1.617-3.06,2.541-5.077,2.541
						c-0.021,0-0.045,0-0.069,0l-8.653-0.09c-0.092-0.001-0.185-0.007-0.275-0.02c-6.504-0.893-11.912-3.359-18.088-8.249
						l-12.974-12.03c-2.906-1.888-6.773-1.465-8.869,0.994c-0.811,0.952-2.167,5.043-2.268,6.84
						c-0.047,0.872-0.167,1.951-0.307,3.202c-1.118,10.041-3.449,30.936,22.26,43.579c14.629,7.194,27.31,5.521,37.494,4.175
						C1057.948,1371.039,1061.008,1370.635,1063.725,1370.635z"/>
				</g>
				<g>
					<path style="fill:#FFFFFF;" d="M795.338,1416.278l14.071-0.727l16.534-3.464l38.092-10.507
						c5.165-1.425,10.519,1.562,12.029,6.709c1.542,5.257-1.508,10.759-6.779,12.228l-22.45,6.257
						c-3.116,0.868-4.239,4.708-2.085,7.125c3.336,3.742,7.311,6.845,11.76,9.151c8.083,4.189,22.257,11.076,37.097,16.141
						c6.964,2.377,8.254,11.185,1.306,13.599l-47.75-2.044c-9.446-0.404-18.438-3.796-25.803-9.526
						C803.85,1447.597,795.338,1416.278,795.338,1416.278z"/>
					<path d="M894.912,1474.986c-0.032,0-0.062-0.001-0.094-0.002l-47.75-2.044c-11.037-0.472-21.612-4.836-29.778-12.287
						l-6.217-6.087l-42.623,5.407c-1.212,0.158-2.305-0.7-2.457-1.903c-0.152-1.204,0.7-2.304,1.904-2.457l43.679-5.54
						c0.67-0.083,1.335,0.141,1.815,0.611l6.919,6.777c7.348,6.704,16.938,10.661,26.947,11.089l47.302,2.025
						c1.792-0.741,2.771-2.09,2.766-3.834c-0.004-1.972-1.376-4.428-4.427-5.47c-14.526-4.958-28.355-11.584-37.398-16.271
						c-4.683-2.425-8.85-5.669-12.389-9.639c-1.521-1.706-2.045-4.034-1.401-6.229c0.642-2.19,2.337-3.863,4.535-4.476l22.451-6.258
						c1.976-0.551,3.612-1.842,4.609-3.636c1-1.799,1.23-3.88,0.65-5.856c-1.165-3.97-5.337-6.312-9.335-5.209l-45.904,12.662
						c-0.086,0.024-0.174,0.043-0.262,0.056c-0.197,0.029-20.08,2.92-58.688,4.342c-1.215,0.074-2.234-0.902-2.277-2.116
						c-0.045-1.213,0.901-2.232,2.114-2.277c36.713-1.352,56.319-4.03,58.079-4.279l45.772-12.625
						c6.284-1.736,12.884,1.951,14.721,8.208c0.912,3.115,0.547,6.392-1.028,9.228c-1.571,2.831-4.155,4.867-7.271,5.736
						l-22.451,6.258c-1.047,0.291-1.397,1.132-1.498,1.48c-0.103,0.349-0.264,1.25,0.464,2.066c3.182,3.57,6.927,6.483,11.131,8.662
						c7.294,3.779,21.775,10.885,36.797,16.013c4.416,1.506,7.391,5.371,7.401,9.617c0.011,3.711-2.322,6.828-6.086,8.136
						C895.401,1474.946,895.156,1474.986,894.912,1474.986z"/>
				</g>
				<g>
					<path style="fill:#FFFFFF;" d="M1027.544,1168.621c-1.114,5.803-5.44,20.683-16.549,25.441
						c-4.663,1.997-10.045,1.119-14.243-1.731c-11.785-8.001-9.059-16.028-4.432-32.815c1.3-4.716,1.273-8.546,0.892-12.208
						c-0.252-2.422-1.563-4.606-3.628-5.895l-18.102-11.295c0,0,6.716-8.998,13.756-8.597c6.159,0.35,16.837,9.784,18.645,8.944
						C1024.106,1121.063,1031.991,1145.452,1027.544,1168.621z"/>
					<path d="M1005.607,1197.35c-3.455,0-6.974-1.086-10.088-3.202c-12.68-8.607-10.088-17.977-5.792-33.499l0.474-1.718
						c1.285-4.661,1.137-8.377,0.824-11.397c-0.187-1.788-1.135-3.34-2.605-4.258l-18.101-11.293
						c-0.521-0.326-0.882-0.855-0.996-1.458c-0.114-0.604,0.03-1.229,0.397-1.721c0.303-0.406,7.444-9.933,15.642-9.478
						c4.094,0.234,9.341,3.562,13.558,6.237c1.556,0.987,3.625,2.3,4.549,2.676c8.693-3.852,14.547-1.539,17.949,1.115
						c8.271,6.455,11.601,22.402,8.284,39.68c-0.678,3.531-4.723,21.428-17.844,27.047
						C1009.874,1196.931,1007.751,1197.35,1005.607,1197.35z M974.796,1129.595l15.951,9.953c2.627,1.641,4.322,4.385,4.65,7.531
						c0.356,3.429,0.522,7.656-0.959,13.021l-0.477,1.721c-4.275,15.456-6.045,21.854,4.026,28.692
						c3.805,2.583,8.339,3.157,12.142,1.528c11.312-4.844,14.887-21.905,15.256-23.834c2.968-15.454,0.225-30.006-6.67-35.387
						c-3.635-2.837-8.318-2.959-13.906-0.362c-1.871,0.864-3.996-0.488-8.243-3.182c-3.588-2.276-8.498-5.392-11.453-5.56
						C981.373,1123.504,977.206,1126.998,974.796,1129.595z"/>
				</g>
			</g>
		</g>
		<g>
			<g>
				<path style="fill:#FFFFFF;" d="M1724.184,1802.76l217.357,37.999l215.615-37.775c0.303-0.053,0.303-0.492,0-0.545
					l-218.08-38.186L1724.184,1802.76z"/>
				<path d="M1941.54,1842.957c-0.127,0-0.253-0.011-0.378-0.033l-217.357-38c-1.052-0.183-1.818-1.093-1.82-2.16
					c-0.002-1.065,0.76-1.98,1.809-2.167l214.894-38.505c0.255-0.044,0.513-0.046,0.768-0.001l218.078,38.186
					c1.18,0.204,2.045,1.226,2.045,2.432c0.002,1.205-0.856,2.232-2.043,2.441l-215.617,37.774
					C1941.793,1842.946,1941.667,1842.957,1941.54,1842.957z M1736.791,1802.733l204.75,35.796l204.434-35.816l-206.894-36.226
					L1736.791,1802.733z M2156.773,1804.604c0.002,0,0.007,0.001,0.009,0.001L2156.773,1804.604z"/>
			</g>
			<g>
				<polygon style="fill:#FFFFFF;" points="1941.499,2162.802 1941.499,1840.443 1723.29,1802.626 1723.29,2124.1 				"/>
				<polygon points="1856.154,1861.212 1856.154,1825.386 1808.635,1817.15 1808.635,1852.785 				"/>
				<path d="M1941.499,2165c-0.129,0-0.255-0.011-0.384-0.033l-218.209-38.703c-1.049-0.187-1.813-1.099-1.813-2.164v-321.475
					c0-0.648,0.285-1.264,0.783-1.681c0.496-0.417,1.152-0.591,1.79-0.484l218.209,37.818c1.054,0.182,1.822,1.097,1.822,2.165
					v322.36c0,0.65-0.287,1.266-0.785,1.685C1942.512,2164.821,1942.012,2165,1941.499,2165z M1725.488,2122.258l213.814,37.924
					v-317.889l-213.814-37.057V2122.258z"/>
				<g>
					<polygon points="1902.214,2040.79 1902.214,1886.68 1761.172,1861.993 1761.172,2015.526 					"/>
					<g>
						<g>
							<path style="fill:#FFFFFF;" d="M1815.976,2009.457c-0.056,0-0.114-0.003-0.167-0.007c-4.836-0.118-9.36-2.164-12.78-5.793
								c-3.498-3.709-5.422-8.633-5.419-13.865l0.008-3.273c0.004-2.635,2.078-4.782,4.622-4.782c1.256,0,2.43,0.512,3.307,1.443
								c0.85,0.903,1.317,2.093,1.316,3.354l-0.001,3.415c0,2.67,0.975,5.175,2.748,7.054c1.747,1.851,4.059,2.871,6.513,2.871
								c0.018,0,0.038,0,0.056,0.001c2.417-0.028,4.692-1.043,6.414-2.868c1.774-1.879,2.75-4.384,2.75-7.055l0.031-95.969
								c0-1.38,0.573-2.692,1.573-3.601c0.957-0.87,2.231-1.297,3.509-1.165c2.333,0.236,4.16,2.383,4.16,4.886v95.704
								c0,5.231-1.927,10.152-5.425,13.86c-3.435,3.641-7.983,5.688-12.841,5.787c-0.03,0.001-0.06,0.003-0.091,0.003h-0.108
								C1816.091,2009.457,1816.034,2009.457,1815.976,2009.457z"/>
						</g>
						<path style="fill:#FFFFFF;" d="M1786.749,1942.877c-2.884-0.494-4.74-3.379-3.996-6.227
							c6.56-25.105,28.65-32.887,52.203-28.804c22.66,3.928,39.8,21.59,45.514,43.861c0.911,3.55-2.065,6.882-5.656,6.267
							L1786.749,1942.877z"/>
					</g>
				</g>
			</g>
			<g>
				<g>
					<polygon style="fill:#FFFFFF;" points="1941.499,2162.802 1941.499,1840.443 2157.817,1802.578 2157.817,2124.288 					"/>
					<path d="M1941.499,2165c-0.513,0-1.013-0.179-1.412-0.513c-0.498-0.417-0.785-1.034-0.785-1.685v-322.36
						c0-1.068,0.766-1.981,1.818-2.164l216.316-37.865c0.642-0.112,1.298,0.065,1.794,0.482c0.496,0.417,0.783,1.033,0.783,1.682
						v321.709c0,1.065-0.764,1.977-1.811,2.163l-216.316,38.515C1941.757,2164.989,1941.628,2165,1941.499,2165z M1943.697,1842.289
						v317.89l211.922-37.733v-317.252L1943.697,1842.289z"/>
				</g>
				<g>
					<g>
						<g>
							<g>
								<g>
									<polygon points="2105.81,1976.658 2105.81,2000.365 1999.071,2018.55 1999.071,1995.363 									"/>
								</g>
							</g>
						</g>
						<g>
							<g>
								<g>
									<g>
										<polygon points="2004.22,1924.748 2026.255,1893.078 2048.165,1917.014 2036.913,1918.984 2036.913,1975.159 
											2015.597,1978.791 2015.597,1922.719 										"/>
									</g>
								</g>
							</g>
							<g>
								<g>
									<g>
										<polygon points="2056.716,1915.905 2078.751,1884.234 2100.661,1908.17 2089.409,1910.14 2089.409,1966.316 
											2068.093,1969.948 2068.093,1913.875 										"/>
									</g>
								</g>
							</g>
						</g>
					</g>
					<polygon points="1981.92,2040.79 1981.92,1886.68 2122.961,1861.993 2122.961,2015.526 					"/>
				</g>
			</g>
		</g>
	</g>
</g>
</svg>
